<?xml version="1.0" encoding="UTF-8" standalone="no"?>
<svg
   xmlns:dc="http://purl.org/dc/elements/1.1/"
   xmlns:cc="http://creativecommons.org/ns#"
   xmlns:rdf="http://www.w3.org/1999/02/22-rdf-syntax-ns#"
   xmlns:svg="http://www.w3.org/2000/svg"
   xmlns="http://www.w3.org/2000/svg"
   viewBox="0 0 841.88977 595.27557"
   id="svg2"
   height="595.27557"
   width="841.88977"
   version="1.1">
  <metadata
     id="metadata46">
    <rdf:RDF>
      <cc:Work
         rdf:about="">
        <dc:format>image/svg+xml</dc:format>
        <dc:type
           rdf:resource="http://purl.org/dc/dcmitype/StillImage" />
      </cc:Work>
    </rdf:RDF>
  </metadata>
  <defs
     id="defs44" />
  <path
     id="path4"
     style="fill:#1b1918;fill-rule:evenodd"
     d="m 530.1805,340.6184 -21.8443,0 0,0.9635 21.8443,0 0,-0.9635 z m -46.9964,127.2543 -30.712,-72.3648 c -3.3574,0.87 -6.8941,1.3048 -10.6101,1.3048 -4.6213,0 -8.9657,-0.6727 -13.0323,-2.018 -4.0671,-1.3453 -7.6719,-3.3633 -10.8144,-6.0537 -3.1428,-2.6906 -5.6384,-6.1018 -7.4872,-10.2339 -1.8482,-4.132 -2.7725,-9.0808 -2.7725,-14.8462 l 0,-7.4494 0,-9.8807 c -2.9569,-0.2115 -5.8411,-0.6846 -8.6298,-1.3972 l 0,15.2679 c 0,0.9332 -0.0207,1.8528 -0.0618,2.7562 -0.4334,9.5167 -3.1522,17.3905 -8.1542,23.6211 -5.4771,6.8224 -14.7501,10.2339 -27.8186,10.2339 -9.8266,0 -20.312,-3.2012 -26.4249,-11.3873 -5.6216,-7.6391 -8.456,-17.5848 -8.456,-29.8846 0,-5.1179 0.2429,-18.4963 0.7285,-24.6172 2.4058,0.3444 4.8515,0.6744 7.3355,0.989 -0.5715,7.5773 -0.8572,18.5352 -0.8572,23.6764 0,4.4204 0.4323,8.7446 1.2969,12.9725 0.8648,4.2281 2.3541,7.9279 4.4206,11.0988 2.1141,3.1711 5.0445,5.7174 8.744,7.6388 3.9232,2.0117 9.0567,2.8831 13.5009,2.8831 8.456,0 15.3388,-2.2924 20.6118,-6.9185 5.2968,-4.6469 7.9274,-12.2517 7.9274,-22.87 l 0,-17.9175 c -5.7495,-2.4766 -10.9307,-6.0205 -15.2935,-10.3833 -8.8756,-8.8755 -14.3654,-21.1377 -14.3654,-34.6813 0,-13.5439 5.4898,-25.8058 14.3654,-34.6816 2.3613,-2.3613 4.9623,-4.4833 7.7635,-6.3252 -3.4132,-3.2443 -8.119,-5.2918 -14.1162,-6.143 -0.8482,-0.1205 -1.5806,-0.1786 -2.4339,-0.2089 l -2.6846,-6.3034 13.6686,-21.7786 -8.8687,-20.897 -40.0145,0 0,-6.6305 37.2002,0 -28.3195,-66.7282 0.7342,-0.3123 28.4522,67.0405 32.5604,0 0,7.4953 -17.5609,27.8473 9.4739,22.3229 c 4.7594,-1.9798 9.8978,-3.2318 15.2757,-3.6168 l 0,-23.2035 c 0,-5.5732 0.9241,-10.4261 2.7725,-14.5579 1.8482,-4.1318 4.3444,-7.543 7.4872,-10.2337 3.1425,-2.6906 6.7473,-4.7086 10.8144,-6.0539 4.0666,-1.3451 8.411,-2.0177 13.0323,-2.0177 4.6216,0 8.9657,0.6726 13.0329,2.0177 4.0668,1.3453 7.6717,3.3633 10.8144,6.0539 3.1425,2.6907 5.6381,6.1022 7.4866,10.2337 1.8485,4.132 2.7731,8.985 2.7731,14.5579 l 0,26.2664 0,23.5 0,88.6059 c 0,5.7649 -0.9246,10.7144 -2.7731,14.8462 -1.8482,4.1318 -4.3441,7.5433 -7.4866,10.2339 -3.1427,2.6904 -6.7476,4.7084 -10.8144,6.0537 -0.5434,0.1797 -1.0919,0.3475 -1.6453,0.5032 l 30.6686,72.2624 -0.7341,0.3124 z m -33.3545,-78.5914 -19.7535,-46.5437 c -4.7936,1.9868 -9.97,3.2363 -15.3884,3.6051 l 0,9.9938 0,7.5648 c 0,8.0717 2.4956,14.5097 7.4869,19.2184 4.9912,4.7083 11.5537,7.0625 19.6874,7.0625 2.8386,0 5.4944,-0.3005 7.9676,-0.9009 z m -58.0838,-136.8598 -9.258,-21.814 -8.4195,13.3512 c 2.3454,0.4014 4.4998,0.957 6.4636,1.6673 4.415,1.5968 8.0028,3.928 10.7646,6.9937 0.1494,-0.0669 0.299,-0.1327 0.4493,-0.1982 z m -20.9254,-51.3476 8.5193,20.0732 12.5983,-20.0732 -21.1176,0 z m 59.9905,141.3524 19.8,46.6535 c 4.1247,-1.1254 7.7249,-3.1116 10.8002,-5.9601 5.0834,-4.7084 7.6255,-11.1467 7.6255,-19.2184 l 0,-89.5963 0,-22.9374 0,-26.0308 c 0,-8.0717 -2.5421,-14.51 -7.6255,-19.2184 -5.0836,-4.7083 -11.6002,-7.0628 -19.5491,-7.0628 -8.1337,0 -14.6962,2.3545 -19.6874,7.0628 -4.991,4.7084 -7.4869,11.147 -7.4869,19.2184 l 0,23.1434 c 12.1966,0.8303 23.1698,6.1189 31.3004,14.2498 8.8759,8.8758 14.3657,21.1377 14.3657,34.6816 0,13.5436 -5.4898,25.8058 -14.3657,34.6813 -4.333,4.3333 -9.4742,7.8594 -15.1772,10.3334 z m 99.3696,-23.6506 -21.8443,0 0,0.9633 21.8443,0 0,-0.9633 z m 0,-43.6901 -21.8443,0 0,0.9633 21.8443,0 0,-0.9633 z m 0,-21.8443 -21.8443,0 0,0.9632 21.8443,0 0,-0.9632 z m 0,43.2068 -21.8443,0 0,1.9267 21.8443,0 0,-1.9267 z m -238.0391,45.1338 21.8444,0 0,-0.9635 -21.8444,0 0,0.9635 z m 0,-21.8429 21.8444,0 0,-0.9633 -21.8444,0 0,0.9633 z m 0,-43.6901 21.8444,0 0,-0.9633 -21.8444,0 0,0.9633 z m 0,-21.8444 21.8444,0 0,-0.9632 -21.8444,0 0,0.9632 z m 0,44.1703 21.8444,0 0,-1.9267 -21.8444,0 0,1.9267 z m 127.33,-16.0058 c -0.2012,0.9473 -0.5014,1.883 -0.8229,2.5395 3.8478,0.1457 7.5493,0.404 11.0478,0.7614 6.1755,0.6304 12.5963,1.6058 18.5706,3.35 5.1341,-4.2789 7.2609,-7.859 6.3079,-10.1041 -1.1043,-2.6025 -6.4068,-3.1544 -14.8714,-1.819 -5.7705,0.9099 -12.7077,2.6983 -20.232,5.2722 z m -2.4137,41.5239 c -0.3654,-0.9295 -0.8569,-2.4495 -1.2492,-3.4827 -1.1483,0.4235 -2.503,0.8824 -3.996,1.3326 l 0,23.701 c 6.1209,-0.0632 11.967,-1.2713 17.335,-3.42 l -7.6958,-18.1309 -4.394,0 z m -6.2566,-1.8536 c -8.7891,2.5129 -21.5855,4.4073 -26.4413,-2.511 -0.3849,0.0667 -0.7659,0.1296 -1.1415,0.1888 -6.459,1.0191 -11.5835,0.9329 -14.6568,-0.3702 2.2938,4.4612 5.2651,8.5173 8.7786,12.0311 8.5822,8.5819 20.397,13.9312 33.461,14.0658 l 0,-23.4045 z m -27.4635,-4.3818 c -1.3629,-3.2933 -0.7007,-6.5563 1.1648,-9.6154 -2.755,-0.455 -5.3155,-0.9783 -7.6422,-1.5599 -0.8705,-0.2177 -1.7093,-0.4442 -2.5135,-0.6789 -5.1344,4.2789 -7.4798,7.7561 -6.5268,10.0012 1.6628,3.9177 12.4152,2.3615 15.5177,1.853 z m 1.7691,-10.5398 c 4.1596,-5.9709 12.6981,-11.075 19.2144,-13.9643 -0.5462,-1.2838 -1.0755,-2.6924 -1.5352,-4.1545 -10.4794,4.7407 -19.4783,9.9468 -25.8191,14.7311 -0.5794,0.4371 -1.1356,0.8694 -1.6685,1.2963 0.5845,0.1624 1.1871,0.3214 1.8068,0.4762 2.4248,0.6064 5.1069,1.1483 8.0016,1.6152 z m 17.1159,-20.0781 c -0.0893,-0.3433 -0.1737,-0.6879 -0.2528,-1.0326 -9.6169,0.4691 -18.2098,1.6497 -24.8647,3.3134 -8.5473,2.1367 -13.8339,5.0028 -13.8339,8.0912 0,2.5543 3.6167,4.9564 9.7038,6.9199 0.8606,-0.7288 1.787,-1.4675 2.7749,-2.2133 6.5035,-4.9067 15.7371,-10.2418 26.4727,-15.0786 z m -0.4654,-2.0341 c -0.4978,-2.5384 -0.7251,-5.1432 -0.0712,-7.6765 l -10.0774,-23.741 c -5.3479,2.4071 -10.1758,5.7645 -14.2685,9.8572 -8.0949,8.0949 -13.3132,19.0661 -13.9927,31.2485 2.0362,-2.4922 6.8304,-4.6822 13.5128,-6.353 6.6784,-1.6696 15.2801,-2.8567 24.897,-3.3352 z m 0.9969,-10.3246 c 1.7544,-3.0294 4.6491,-4.2636 8.047,-4.1959 l 0,-21.1059 c -6.1208,0.0632 -11.967,1.2713 -17.3356,3.42 l 9.2886,21.8818 z m 9.0584,-4.1315 c 5.1216,0.551 7.7805,4.6408 7.9549,9.5907 7.2731,-2.4392 13.9898,-4.1451 19.6279,-5.0343 6.4585,-1.0185 11.5832,-0.9332 14.6565,0.3699 -2.2938,-4.4612 -5.2647,-8.5167 -8.7786,-12.0305 -8.5819,-8.5819 -20.3967,-13.9312 -33.4607,-14.0661 l 0,21.1703 z m 2.0098,11.7 c 0.246,-0.4193 0.356,-1.1135 0.3503,-1.7368 -0.0175,-1.8451 -0.4535,-3.7744 -2.3601,-4.4238 l 0,6.9313 c 0.6625,-0.2574 1.3589,-0.5241 2.0098,-0.7707 z m -3.0212,-6.3613 c -0.089,-0.007 -0.1797,-0.0119 -0.273,-0.0147 -4.5042,0.1224 -3.8905,5.8297 -3.1623,8.9362 1.1517,-0.4799 2.2972,-0.9445 3.4353,-1.3938 l 0,-7.5277 z m -2.8602,10.8681 c 0.8051,2.2943 1.9058,4.634 2.8602,6.8819 l 0,-7.8554 c -0.1647,3e-4 -0.3288,9e-4 -0.4932,0.002 -0.7855,0.3167 -1.575,0.6407 -2.367,0.9718 z m 11.111,26.3199 c 2.6838,-1.0896 5.7107,-2.4724 8.4535,-3.7145 -3.1272,0.2758 -6.4001,0.4742 -9.7815,0.5856 l 1.328,3.1289 z m 13.0754,-4.1907 1.5225,3.5872 c -3.8282,1.846 -8.0275,3.7738 -12.4484,5.6671 l 9.8034,23.0952 c 5.3481,-2.4072 10.1758,-5.7645 14.2684,-9.8569 8.0949,-8.0949 13.3132,-19.0658 13.9927,-31.2483 -2.0364,2.4923 -6.8307,4.682 -13.5128,6.3525 -3.9359,0.9842 -8.5399,1.8005 -13.6258,2.4032 z m 24.6535,-26.987 c -0.8904,2.3213 -3.0578,4.9918 -6.2618,7.8307 4.1996,1.429 7.2343,3.1133 8.7469,4.9646 -0.2483,-4.4543 -1.1041,-8.7463 -2.4851,-12.7953 z m -7.1422,8.5933 c -4.0893,3.4628 -8.7645,6.4856 -13.3818,9.1768 -5.4235,3.1612 -11.6771,6.323 -18.4686,9.2651 10.77,-0.3597 20.4132,-1.6044 27.72,-3.4311 8.5476,-2.1367 13.8342,-5.0028 13.8342,-8.0909 0,-2.5546 -3.6167,-4.9567 -9.7038,-6.9199 z m -37.7459,20.8836 -0.0802,0.0321 0,4.515 c 0.6834,-0.235 1.2801,-0.4635 1.7617,-0.6738 -0.5471,-1.2708 -1.1103,-2.5659 -1.6815,-3.8733 z m -1.0916,0.4275 c -6.315,2.4511 -12.3735,4.4164 -17.8778,5.8484 4.6207,1.7527 12.8976,0.1619 17.8778,-1.3977 l 0,-4.4507 z m -44.9685,1.1228 c 0.8903,-2.3213 3.0577,-4.9924 6.262,-7.8316 -4.2001,-1.4289 -7.2343,-3.1135 -8.7472,-4.9646 0.2486,4.4547 1.1044,8.7469 2.4852,12.7962 z m 26.0322,-4.8997 c 5.8028,0.637 12.204,0.9972 18.9363,1.0145 l 0,-0.1576 c -1.5466,-3.5248 -3.1124,-7.0772 -4.5422,-10.4164 -4.246,1.8147 -10.8967,5.4683 -14.3941,9.5595 z m -1.2345,8.1264 c 5.7955,-1.4156 12.2979,-3.471 19.1211,-6.1064 -6.6245,-0.0519 -12.9172,-0.4351 -18.6225,-1.086 -1.4057,1.9511 -2.0225,3.9753 -1.2696,5.9276 0.1843,0.4773 0.4459,0.8963 0.771,1.2648 z m 25.9515,-8.8957 c 6.8448,-2.9469 13.14,-6.1186 18.5828,-9.2869 4.2035,-2.4468 8.35,-5.1293 12.1507,-8.1731 -5.7796,-1.6044 -11.882,-2.5308 -17.8398,-3.134 -5.4607,-0.5527 -11.4194,-0.864 -17.663,-0.8799 l 0,10.2379 4.7693,11.236 z" />
  <path
     id="path6"
     style="fill:none"
     d="m 621.3461,478.8965 -21.75,-51.2485" />
  <g
     id="g8">
    <path
       id="path10"
       style="fill:none"
       d="m 606.745,444.5884 c -19.9189,8.4535 -34.3056,19.4553 -32.1335,24.5733 2.1721,5.118 20.0803,2.4141 39.9994,-6.0394 19.9189,-8.4535 34.3057,-19.4553 32.1336,-24.5735 -2.1721,-5.118 -20.0804,-2.4141 -39.9995,6.0396 z" />
    <path
       id="path12"
       style="fill:#1b1918;fill-rule:evenodd"
       d="m 610.0955,443.2132 0,-10.5755 13.7936,0 0,1.2432 -12.4319,0 0,7.537 c 1.4425,-0.7457 3.6309,-1.5329 5.328,-1.511 2.1448,0.0277 3.5656,0.4475 4.7146,1.3426 1.043,0.8121 1.7527,1.9557 2.0347,3.2229 0.0873,0.393 0.2269,1.5467 0.203,1.9773 -0.5213,-0.0433 -1.0469,-0.0843 -1.5781,-0.122 -0.009,-0.0111 -0.0147,-0.0211 -0.0159,-0.0296 -0.008,-0.0549 -0.0115,-0.3771 -0.0551,-0.8156 -0.164,-1.6486 -0.6568,-2.6111 -2.1154,-3.4474 -0.9261,-0.5309 -1.8361,-0.7667 -3.1286,-0.7667 -1.3479,0 -2.765,0.4041 -3.7538,0.8372 l -1.5194,0.5332 -1.427,0.5752 0.0138,-0.0255 -0.0625,0.0247 z m 13.8629,15.5561 0,7.9676 c 0,2.21 -0.5624,4.0158 -1.6872,5.4168 -1.1248,1.4011 -2.8023,2.1016 -5.486,2.1016 -0.9078,0 -1.7859,-0.1184 -2.6344,-0.365 -0.8485,-0.2467 -1.6083,-0.671 -2.2792,-1.2729 -0.671,-0.6018 -1.2137,-1.4108 -1.628,-2.4173 -0.2977,-0.7228 -0.4887,-1.5731 -0.5723,-2.5503 -0.0322,-0.3766 -0.0488,-2.0544 -0.0494,-2.5133 0.4915,-0.1884 0.9849,-0.3803 1.48,-0.5762 0,1.2803 -0.0395,2.685 0.2276,3.9415 0.2112,0.9925 0.5697,1.8448 1.0748,2.5567 0.8682,1.2234 2.3483,1.8352 4.4401,1.8352 1.7365,0 2.9207,-0.4736 4.006,-1.4208 1.0853,-0.9571 1.628,-2.516 1.628,-4.6966 l 0,-7.2605 c 0.4989,-0.2479 0.9919,-0.4968 1.48,-0.7465 z" />
    <path
       id="path14"
       style="fill:#1b1918;fill-rule:evenodd"
       d="m 595.1539,472.4793 12.9648,0 0,1.3616 -14.504,0 0,-1.5392 5.4324,-10.9816 c 0.5244,0.0289 1.0542,0.0552 1.5878,0.0798 l -5.481,11.0794 z m 11.5252,-27.8628 c 0.2098,-1.1671 0.3147,-2.4565 0.3147,-3.8684 0,-0.9077 -0.0888,-1.7957 -0.2663,-2.664 -0.1776,-0.8683 -0.4835,-1.628 -0.9078,-2.2792 -0.4341,-0.6512 -1.036,-1.1742 -1.7957,-1.5687 -0.7696,-0.3947 -1.7661,-0.5921 -2.9797,-0.5921 -0.7104,0 -1.4011,0.1086 -2.0918,0.3256 -0.6906,0.2171 -1.3123,0.5821 -1.8845,1.0952 -0.5722,0.5131 -1.0263,1.194 -1.3814,2.0424 -0.596,1.4243 -0.5246,3.7656 -0.358,5.3257 -0.5197,0.0856 -1.0334,0.175 -1.5412,0.2682 -0.137,-1.7674 -0.1568,-4.4791 0.5377,-6.2155 0.3945,-0.9865 0.9077,-1.7858 1.5589,-2.3976 0.6512,-0.6117 1.4208,-1.0656 2.2989,-1.3616 0.8881,-0.296 1.8353,-0.444 2.8614,-0.444 2.6344,0 4.5288,0.7794 5.693,2.3384 1.1545,1.5688 1.7365,3.6112 1.7365,6.1371 0,1.1806 -0.0629,2.2423 -0.1887,3.1872 -0.512,0.2109 -1.0252,0.4246 -1.5401,0.6431 l -0.0659,0.0282 z" />
    <path
       id="path16"
       style="fill:#1b1918;fill-rule:evenodd"
       d="m 610.7079,443.77 c 2.7814,0 5.2996,1.1274 7.1223,2.9501 1.8227,1.8227 2.9501,4.3408 2.9501,7.1222 0,2.7814 -1.1274,5.2995 -2.9501,7.1222 -1.8227,1.8227 -4.3409,2.9501 -7.1223,2.9501 -2.7813,0 -5.2995,-1.1274 -7.1222,-2.9501 -1.8227,-1.8227 -2.9501,-4.3408 -2.9501,-7.1222 0,-2.7814 1.1274,-5.2995 2.9501,-7.1222 1.8227,-1.8227 4.3409,-2.9501 7.1222,-2.9501 z m 1.6767,6.9832 c -0.0413,0.1945 -0.1029,0.3866 -0.169,0.5215 0.7902,0.0299 1.5503,0.083 2.2689,0.1563 1.2682,0.1295 2.5867,0.3298 3.8136,0.688 1.0543,-0.8787 1.4911,-1.6139 1.2954,-2.075 -0.2268,-0.5344 -1.3157,-0.6477 -3.054,-0.3736 -1.185,0.1869 -2.6097,0.5542 -4.1549,1.0828 z m -0.4956,8.5273 c -0.075,-0.1909 -0.176,-0.503 -0.2566,-0.7152 -0.2358,0.087 -0.514,0.1812 -0.8206,0.2737 l 0,4.8672 c 1.257,-0.0129 2.4575,-0.261 3.56,-0.7023 l -1.5805,-3.7234 -0.9023,0 z m -1.2849,-0.3806 c -1.805,0.516 -4.4328,0.9051 -5.43,-0.5157 -0.0791,0.0137 -0.1573,0.0266 -0.2344,0.0388 -1.3264,0.2092 -2.3788,0.1916 -3.0099,-0.076 0.471,0.9161 1.0812,1.7491 1.8028,2.4707 1.7624,1.7624 4.1887,2.8609 6.8715,2.8885 l 0,-4.8063 z M 604.9642,458 c -0.2799,-0.6763 -0.1439,-1.3464 0.2392,-1.9746 -0.5658,-0.0934 -1.0916,-0.2009 -1.5694,-0.3203 -0.1788,-0.0447 -0.351,-0.0913 -0.5162,-0.1395 -1.0544,0.8787 -1.5361,1.5929 -1.3403,2.0539 0.3414,0.8045 2.5496,0.485 3.1867,0.3805 z m 0.3633,-2.1645 c 0.8542,-1.2261 2.6077,-2.2743 3.9459,-2.8677 -0.1122,-0.2636 -0.2209,-0.5529 -0.3153,-0.8531 -2.1521,0.9735 -4.0001,2.0426 -5.3022,3.0251 -0.119,0.0898 -0.2333,0.1786 -0.3427,0.2663 0.1201,0.0333 0.2438,0.066 0.3711,0.0978 0.4979,0.1245 1.0487,0.2358 1.6432,0.3316 z m 3.5149,-4.1232 c -0.0183,-0.0705 -0.0357,-0.1413 -0.0519,-0.212 -1.9749,0.0963 -3.7396,0.3388 -5.1062,0.6804 -1.7553,0.4388 -2.841,1.0274 -2.841,1.6616 0,0.5246 0.7428,1.0179 1.9928,1.4211 0.1767,-0.1497 0.367,-0.3014 0.5699,-0.4545 1.3355,-1.0077 3.2318,-2.1033 5.4364,-3.0966 z m -0.0956,-0.4177 c -0.1022,-0.5213 -0.1489,-1.0562 -0.0146,-1.5765 l -2.0695,-4.8754 c -1.0982,0.4943 -2.0897,1.1838 -2.9301,2.0243 -1.6625,1.6623 -2.7341,3.9154 -2.8736,6.4172 0.4182,-0.5118 1.4027,-0.9616 2.775,-1.3047 1.3715,-0.3428 3.1379,-0.5866 5.1128,-0.6849 z m 0.2048,-2.1203 c 0.3603,-0.6221 0.9547,-0.8756 1.6525,-0.8616 l 0,-4.3344 c -1.257,0.013 -2.4576,0.2611 -3.56,0.7024 l 1.9075,4.4936 z m 1.8602,-0.8484 c 1.0518,0.1132 1.5978,0.953 1.6336,1.9696 1.4936,-0.501 2.873,-0.8513 4.0308,-1.0339 1.3263,-0.2092 2.3788,-0.1917 3.0099,0.0759 -0.4711,-0.9161 -1.0812,-1.749 -1.8028,-2.4705 -1.7624,-1.7624 -4.1887,-2.861 -6.8715,-2.8887 l 0,4.3476 z m 0.4127,2.4027 c 0.0505,-0.0861 0.0731,-0.2287 0.072,-0.3567 -0.004,-0.3789 -0.0932,-0.7751 -0.4847,-0.9084 l 0,1.4234 c 0.1361,-0.0529 0.279,-0.1076 0.4127,-0.1583 z m -0.6204,-1.3064 c -0.0183,-0.001 -0.0369,-0.002 -0.056,-0.003 -0.9251,0.0252 -0.799,1.1972 -0.6495,1.8352 0.2365,-0.0986 0.4718,-0.194 0.7055,-0.2863 l 0,-1.5459 z m -0.5874,2.2319 c 0.1654,0.4712 0.3914,0.9517 0.5874,1.4133 l 0,-1.6132 c -0.0338,10e-5 -0.0676,2e-4 -0.1013,4e-4 -0.1613,0.065 -0.3234,0.1315 -0.4861,0.1995 z m 2.2818,5.4051 c 0.5511,-0.2238 1.1727,-0.5078 1.736,-0.7628 -0.6422,0.0566 -1.3143,0.0974 -2.0087,0.1202 l 0.2727,0.6426 z m 2.6852,-0.8606 0.3126,0.7367 c -0.7862,0.3791 -1.6485,0.7749 -2.5564,1.1637 l 2.0133,4.7429 c 1.0982,-0.4944 2.0896,-1.1838 2.9301,-2.0242 1.6624,-1.6624 2.734,-3.9154 2.8736,-6.4172 -0.4183,0.5118 -1.4028,0.9615 -2.775,1.3046 -0.8083,0.202 -1.7538,0.3697 -2.7982,0.4935 z m 5.0628,-5.5421 c -0.1828,0.4767 -0.6279,1.0251 -1.2859,1.6081 0.8624,0.2935 1.4856,0.6394 1.7963,1.0196 -0.051,-0.9147 -0.2268,-1.7962 -0.5104,-2.6277 z m -1.4667,1.7647 c -0.8398,0.7112 -1.7999,1.3319 -2.7481,1.8846 -1.1138,0.6492 -2.398,1.2985 -3.7927,1.9027 2.2117,-0.0739 4.192,-0.3295 5.6926,-0.7046 1.7553,-0.4388 2.841,-1.0274 2.841,-1.6616 0,-0.5246 -0.7428,-1.0179 -1.9928,-1.4211 z m -7.7515,4.2887 -0.0165,0.007 0,0.9272 c 0.1404,-0.0482 0.2629,-0.0952 0.3618,-0.1384 -0.1124,-0.2609 -0.228,-0.5269 -0.3453,-0.7954 z m -0.2242,0.0878 c -1.2968,0.5034 -2.541,0.9069 -3.6714,1.201 0.9489,0.36 2.6486,0.0333 3.6714,-0.287 l 0,-0.914 z m -9.2347,0.2306 c 0.1828,-0.4768 0.6279,-1.0252 1.2859,-1.6083 -0.8625,-0.2934 -1.4856,-0.6394 -1.7963,-1.0195 0.051,0.9147 0.2268,1.7962 0.5104,2.6278 z m 5.3459,-1.0062 c 1.1917,0.1308 2.5062,0.2048 3.8888,0.2083 l 0,-0.0323 c -0.3176,-0.7239 -0.6392,-1.4534 -0.9328,-2.1392 -0.872,0.3727 -2.2377,1.123 -2.956,1.9632 z m -0.2535,1.6688 c 1.1902,-0.2907 2.5255,-0.7128 3.9267,-1.254 -1.3604,-0.0107 -2.6527,-0.0894 -3.8243,-0.223 -0.2887,0.4007 -0.4153,0.8164 -0.2607,1.2173 0.0378,0.098 0.0915,0.184 0.1583,0.2597 z m 5.3294,-1.8268 c 1.4057,-0.6052 2.6985,-1.2565 3.8162,-1.9072 0.8632,-0.5024 1.7147,-1.0533 2.4953,-1.6784 -1.1869,-0.3295 -2.4401,-0.5197 -3.6636,-0.6436 -1.1214,-0.1135 -2.3451,-0.1775 -3.6273,-0.1807 l 0,2.1025 0.9794,2.3074 z" />
    <g
       id="g18">
      <path
         id="path20"
         style="fill:#1b1918;fill-rule:evenodd"
         d="m 635.1199,462.7153 -4.486,0 0,0.1978 4.486,0 0,-0.1978 z" />
      <path
         id="path22"
         style="fill:#1b1918;fill-rule:evenodd"
         d="m 635.1199,458.2296 -4.486,0 0,0.1979 4.486,0 0,-0.1979 z" />
      <path
         id="path24"
         style="fill:#1b1918;fill-rule:evenodd"
         d="m 635.1199,449.2574 -4.486,0 0,0.1979 4.486,0 0,-0.1979 z" />
      <path
         id="path26"
         style="fill:#1b1918;fill-rule:evenodd"
         d="m 635.1199,444.7715 -4.486,0 0,0.1978 4.486,0 0,-0.1978 z" />
      <path
         id="path28"
         style="fill:#1b1918;fill-rule:evenodd"
         d="m 635.1199,453.6445 -4.486,0 0,0.3956 4.486,0 0,-0.3956 z" />
    </g>
    <g
       id="g30">
      <path
         id="path32"
         style="fill:#1b1918;fill-rule:evenodd"
         d="m 586.2361,462.9131 4.486,0 0,-0.1978 -4.486,0 0,0.1978 z" />
      <path
         id="path34"
         style="fill:#1b1918;fill-rule:evenodd"
         d="m 586.2361,458.4275 4.486,0 0,-0.1979 -4.486,0 0,0.1979 z" />
      <path
         id="path36"
         style="fill:#1b1918;fill-rule:evenodd"
         d="m 586.2361,449.4553 4.486,0 0,-0.1979 -4.486,0 0,0.1979 z" />
      <path
         id="path38"
         style="fill:#1b1918;fill-rule:evenodd"
         d="m 586.2361,444.9693 4.486,0 0,-0.1978 -4.486,0 0,0.1978 z" />
      <path
         id="path40"
         style="fill:#1b1918;fill-rule:evenodd"
         d="m 586.2361,454.0401 4.486,0 0,-0.3956 -4.486,0 0,0.3956 z" />
    </g>
  </g>
</svg>
