<svg width="498" height="71" viewBox="0 0 498 71" fill="none" xmlns="http://www.w3.org/2000/svg">
<path fill-rule="evenodd" clip-rule="evenodd" d="M72.0529 35.2369C71.6219 44.1091 71.3196 49.4674 63.0356 55.6603L60.7988 52.5097C67.6026 47.2961 67.959 43.1978 68.2618 34.4164L68.8588 16.0848H84.9051V54.5548H80.5339V20.1197H72.7874L72.0529 35.2369V35.2369ZM92.7288 54.5548V16.0848H109.218V20.1197H97.1V32.9984H107.613V37.0332H97.1V50.5199H109.218V54.5548H92.7288V54.5548ZM128.108 34.3802C129.805 34.896 130.957 35.937 131.566 37.5031C132.175 39.0692 132.479 40.9761 132.479 43.2238C132.479 47.2035 131.658 50.0875 130.017 51.874C128.376 53.6606 125.82 54.5548 122.353 54.5548H114.939V16.0848H123.073C126.392 16.0848 128.735 16.9692 130.1 18.7379C131.464 20.5066 132.147 23.0124 132.147 26.2551C132.147 28.2817 131.852 29.8939 131.262 31.0915C130.671 32.289 129.62 33.3115 128.108 34.1591V34.3802V34.3802ZM128.274 42.7816C128.274 40.6813 127.877 39.0594 127.084 37.9176C126.292 36.7759 124.768 36.2042 122.519 36.2042H119.31V50.6304H122.74C123.958 50.6304 124.926 50.4184 125.645 49.9947C126.365 49.571 126.919 48.9992 127.305 48.2813C127.692 47.5634 127.952 46.7331 128.08 45.7941C128.209 44.855 128.274 43.8503 128.274 42.7816V42.7816ZM127.942 26.2274C127.942 24.2468 127.508 22.736 126.641 21.6858C125.774 20.6449 124.325 20.1197 122.298 20.1197H119.31V32.3904H122.243C124.271 32.3904 125.728 31.8561 126.614 30.7966C127.499 29.7281 127.942 28.208 127.942 26.2274V26.2274ZM141.042 54.5548V20.1197H134.385V16.0848H145.413V31.6166H148.567C150.67 31.6166 152.377 31.8939 153.685 32.4456C154.994 32.9974 156.018 33.763 156.756 34.7579C157.494 35.7528 157.992 36.9319 158.25 38.2861C158.508 39.6495 158.637 41.1419 158.637 42.754C158.637 44.5596 158.499 46.181 158.222 47.6364C157.946 49.0828 157.438 50.3264 156.701 51.3581C155.963 52.3899 154.966 53.1739 153.713 53.7257C152.46 54.2775 150.852 54.5548 148.899 54.5548H141.042V54.5548ZM145.413 50.4093H148.512C149.803 50.4093 150.836 50.2149 151.61 49.8289C152.384 49.443 152.975 48.9077 153.381 48.226C153.787 47.5444 154.054 46.7429 154.183 45.8217C154.312 44.9005 154.377 43.924 154.377 42.8922C154.377 41.8973 154.321 40.9659 154.211 40.1009C154.101 39.236 153.832 38.4694 153.408 37.807C152.985 37.1448 152.376 36.6187 151.583 36.2318C150.789 35.8449 149.727 35.6514 148.401 35.6514H145.413V50.4093V50.4093Z" fill="#1B1918"/>
<path fill-rule="evenodd" clip-rule="evenodd" d="M344.326 37.1222V33.4189H357.68V37.1222H344.326ZM376.772 54.485L375.001 45.9177H366.424L364.708 54.485H360.502L368.693 16.0149H372.788L381.089 54.485H376.772ZM370.574 23.919L368.969 32.8732L367.143 41.8829H374.227L372.345 32.7628L370.795 23.919H370.574V23.919ZM392.647 37.5162L397.738 16.0149H401.944L394.196 45.5862C393.643 47.7601 393.053 49.4644 392.425 50.6988C391.798 51.9332 391.152 52.8548 390.488 53.4624C389.825 54.0702 389.141 54.4579 388.441 54.6232C387.74 54.7886 387.02 54.8904 386.282 54.9272H384.18V51.5555H386.172C386.947 51.5555 387.676 51.159 388.358 50.3672C389.04 49.5756 389.603 48.322 390.046 46.6271L390.654 44.3055L382.298 16.0702H386.615L392.425 37.5714L392.647 37.5162V37.5162ZM405.128 61.8363H401.255V50.9475L402.915 50.6712C403.394 50.3764 403.82 49.9608 404.187 49.4276C404.555 48.8943 404.88 48.1832 405.156 47.2995C405.432 46.416 405.646 45.2995 405.793 43.9555C405.939 42.6118 406.051 40.9984 406.125 39.1192L406.789 16.0149H423.114V50.7264H425.051V61.8363H421.177V54.485H405.128V61.8363V61.8363ZM418.742 50.7264V19.8289H410.662L410.054 39.3956C409.98 42.1592 409.776 44.4448 409.445 46.2493C409.114 48.0538 408.56 49.5472 407.785 50.7264H418.742V50.7264ZM446.29 27.4564L436.55 54.485H432.455V16.0149H436.661V43.2093L436.882 43.2646L446.511 16.0149H450.662V54.485H446.456V27.4564H446.29V27.4564ZM467.056 20.0498V54.485H462.684V20.0498H456.154V16.0149H473.586V20.0498H467.056Z" fill="#1B1918"/>
<path fill-rule="evenodd" clip-rule="evenodd" d="M199.766 0C209.5 0 218.314 3.94579 224.693 10.3253C231.073 16.7048 235.019 25.5181 235.019 35.2528C235.019 44.9875 231.073 53.801 224.693 60.1803C218.314 66.5598 209.5 70.5056 199.766 70.5056C190.031 70.5056 181.218 66.5598 174.838 60.1803C168.459 53.801 164.513 44.9875 164.513 35.2528C164.513 25.5181 168.459 16.7048 174.838 10.3253C181.218 3.94579 190.031 0 199.766 0V0ZM205.634 24.4409C205.49 25.1217 205.274 25.7943 205.043 26.2662C207.808 26.3709 210.469 26.5566 212.983 26.8134C217.422 27.2666 222.037 27.9677 226.331 29.2212C230.021 26.1459 231.55 23.5726 230.865 21.959C230.071 20.0883 226.26 19.6917 220.176 20.6514C216.029 21.3056 211.042 22.5908 205.634 24.4409V24.4409ZM204.006 54.5586C203.744 53.8903 203.283 52.5259 203.001 51.7834C202.176 52.0877 201.202 52.4596 200.129 52.7832V69.7764C204.529 69.7311 208.731 68.8627 212.589 67.3183L207.173 54.5592L204.006 54.5586ZM199.402 52.9966C196.44 53.8434 192.845 54.7129 189.501 54.747C185.715 54.7858 182.148 53.8424 180.397 51.1496C180.121 51.1972 179.847 51.2426 179.577 51.2852C174.935 52.0175 171.251 51.9557 169.042 51.0191C170.691 54.2256 172.827 57.1408 175.352 59.6666C181.521 65.8349 190.012 69.6797 199.402 69.7764V52.9966V52.9966ZM179.663 49.8048C178.683 47.4377 179.159 45.0924 180.5 42.8936C178.52 42.5666 176.679 42.1905 175.007 41.7724C174.381 41.616 173.779 41.4532 173.2 41.2844C169.51 44.3599 167.824 46.8593 168.509 48.473C169.704 51.2887 177.433 50.1703 179.663 49.8048ZM180.934 42.2291C183.924 37.9375 190.061 34.2691 194.745 32.1922C194.352 31.2696 193.972 30.257 193.641 29.2063C186.109 32.6136 179.641 36.3555 175.084 39.7942C174.667 40.1084 174.267 40.4191 173.884 40.726C174.305 40.8426 174.738 40.957 175.183 41.0683C176.926 41.504 178.854 41.8936 180.934 42.2291V42.2291ZM193.236 27.7979C193.172 27.5511 193.112 27.3034 193.055 27.0557C186.143 27.393 179.966 28.2416 175.183 29.4373C169.04 30.973 165.24 33.033 165.24 35.2528C165.24 37.0887 167.839 38.8154 172.215 40.2267C172.833 39.7027 173.499 39.1718 174.209 38.6359C178.883 35.109 185.52 31.2744 193.236 27.7979V27.7979ZM192.902 26.3358C192.544 24.5113 192.381 22.6391 192.851 20.8183L185.608 3.75418C181.764 5.48458 178.294 7.89759 175.352 10.8393C169.534 16.6575 165.783 24.5431 165.295 33.2994C166.758 31.5082 170.204 29.9339 175.007 28.7331C179.807 27.5331 185.99 26.6799 192.902 26.3358V26.3358ZM193.618 18.915C194.879 16.7376 196.96 15.814 199.402 15.8434V0.729095C195.003 0.774495 190.801 1.64289 186.942 3.18729L193.618 18.915V18.915ZM200.129 15.8896C203.81 16.2857 205.722 19.2808 205.847 22.8389C211.074 21.0856 215.902 19.8596 219.954 19.2203C224.597 18.4882 228.28 18.5497 230.489 19.4863C228.84 16.2797 226.705 13.3647 224.18 10.8393C218.011 4.67089 209.519 0.826095 200.129 0.729095V15.8896V15.8896ZM201.574 24.3549C201.751 24.0535 201.83 23.5546 201.826 23.1066C201.813 21.7804 201.5 20.3938 200.129 19.927V24.9089C200.605 24.7239 201.106 24.5322 201.574 24.3549V24.3549ZM199.402 19.7826C199.338 19.7776 199.273 19.7746 199.206 19.7722C195.969 19.8602 196.41 23.9624 196.933 26.1951C197.761 25.8501 198.584 25.5161 199.402 25.1932V19.7826V19.7826ZM197.347 27.5942C197.925 29.2433 198.716 30.9249 199.402 32.5407V26.8944C199.284 26.8948 199.166 26.8952 199.048 26.8954C198.483 27.123 197.916 27.3557 197.347 27.5938V27.5942ZM205.333 46.5118C207.262 45.7287 209.437 44.7347 211.409 43.842C209.161 44.0403 206.809 44.1829 204.378 44.263L205.333 46.5118V46.5118ZM214.731 43.4997L215.825 46.0782C213.073 47.405 210.055 48.7904 206.878 50.1513L213.924 66.7513C217.768 65.021 221.238 62.608 224.18 59.6666C229.998 53.8482 233.748 45.9629 234.237 37.2066C232.773 38.9978 229.327 40.5719 224.524 41.7724C221.695 42.4797 218.386 43.0666 214.731 43.4997V43.4997ZM232.451 24.1027C231.811 25.771 230.253 27.6905 227.95 29.731C230.968 30.7581 233.15 31.9687 234.237 33.2994C234.058 30.0979 233.443 27.0129 232.451 24.1027ZM227.317 30.2791C224.378 32.7681 221.017 34.9407 217.699 36.8751C213.801 39.1472 209.306 41.4197 204.424 43.5344C212.166 43.2758 219.096 42.3813 224.348 41.0683C230.492 39.5325 234.292 37.4725 234.292 35.2528C234.292 33.4168 231.692 31.6902 227.317 30.2791ZM200.187 45.2895L200.129 45.3124V48.5577C200.621 48.3888 201.049 48.2245 201.395 48.0733C201.002 47.16 200.597 46.229 200.187 45.2895V45.2895ZM199.402 45.5967C194.863 47.3584 190.509 48.7709 186.553 49.8003C189.874 51.06 195.823 49.9166 199.402 48.7957V45.5967ZM167.081 46.4036C167.721 44.7351 169.279 42.8154 171.582 40.7746C168.563 39.7477 166.382 38.5368 165.295 37.2064C165.473 40.4081 166.088 43.4933 167.081 46.4036ZM185.792 42.8819C189.963 43.3398 194.563 43.5987 199.402 43.6111V43.4979C198.291 40.9644 197.165 38.411 196.137 36.011C193.086 37.3153 188.306 39.9413 185.792 42.8819ZM184.904 48.7228C189.07 47.7054 193.744 46.228 198.648 44.3339C193.886 44.2965 189.364 44.0211 185.263 43.5534C184.252 44.9557 183.809 46.4106 184.35 47.8137C184.483 48.1568 184.671 48.458 184.904 48.7228V48.7228ZM203.557 42.3291C208.477 40.211 213.002 37.9313 216.914 35.654C219.935 33.8954 222.915 31.9674 225.647 29.7796C221.493 28.6263 217.107 27.9605 212.825 27.5269C208.9 27.1296 204.617 26.9059 200.129 26.8944V34.2532L203.557 42.3291Z" fill="#1B1918"/>
<path fill-rule="evenodd" clip-rule="evenodd" d="M252.148 35.2369C251.717 44.1091 251.415 49.4674 243.131 55.6603L240.894 52.5097C247.698 47.2961 248.054 43.1978 248.357 34.4164L248.954 16.0848H265.001V54.5548H260.629V20.1197H252.883L252.148 35.2369V35.2369ZM272.824 54.5548V16.0848H289.313V20.1197H277.195V32.9984H287.708V37.0332H277.195V50.5199H289.313V54.5548H272.824V54.5548ZM308.203 34.3802C309.9 34.896 311.053 35.937 311.661 37.5031C312.27 39.0692 312.574 40.9761 312.574 43.2238C312.574 47.2035 311.753 50.0875 310.112 51.874C308.471 53.6606 305.915 54.5548 302.449 54.5548H295.034V16.0848H303.168C306.488 16.0848 308.83 16.9692 310.195 18.7379C311.56 20.5066 312.242 23.0124 312.242 26.2551C312.242 28.2817 311.947 29.8939 311.357 31.0915C310.767 32.289 309.715 33.3115 308.203 34.1591V34.3802V34.3802ZM308.369 42.7816C308.369 40.6813 307.972 39.0594 307.179 37.9176C306.387 36.7759 304.863 36.2042 302.614 36.2042H299.405V50.6304H302.836C304.053 50.6304 305.021 50.4184 305.741 49.9947C306.46 49.571 307.014 48.9992 307.401 48.2813C307.788 47.5634 308.047 46.7331 308.175 45.7941C308.304 44.855 308.369 43.8503 308.369 42.7816V42.7816ZM308.037 26.2274C308.037 24.2468 307.604 22.736 306.737 21.6858C305.87 20.6449 304.421 20.1197 302.393 20.1197H299.405V32.3904H302.338C304.367 32.3904 305.824 31.8561 306.709 30.7966C307.594 29.7281 308.037 28.208 308.037 26.2274V26.2274ZM321.137 54.5548V20.1197H314.481V16.0848H325.508V31.6166H328.662C330.765 31.6166 332.472 31.8939 333.781 32.4456C335.089 32.9974 336.114 33.763 336.851 34.7579C337.589 35.7528 338.087 36.9319 338.345 38.2861C338.604 39.6495 338.733 41.1419 338.733 42.754C338.733 44.5596 338.594 46.181 338.318 47.6364C338.041 49.0828 337.534 50.3264 336.796 51.3581C336.058 52.3899 335.061 53.1739 333.808 53.7257C332.555 54.2775 330.948 54.5548 328.994 54.5548H321.137ZM325.508 50.4093H328.607C329.898 50.4093 330.932 50.2149 331.706 49.8289C332.479 49.443 333.07 48.9077 333.476 48.226C333.882 47.5444 334.149 46.7429 334.278 45.8217C334.408 44.9005 334.472 43.924 334.472 42.8922C334.472 41.8973 334.416 40.9659 334.306 40.1009C334.197 39.236 333.927 38.4694 333.504 37.807C333.081 37.1448 332.471 36.6187 331.678 36.2318C330.885 35.8449 329.822 35.6514 328.496 35.6514H325.508V50.4093V50.4093Z" fill="#1B1918"/>
<path fill-rule="evenodd" clip-rule="evenodd" d="M497.456 19.9525H479.83V19.218H497.456V19.9525ZM497.456 36.0362H479.83V34.4694H497.456V36.0362ZM497.456 66.5888H479.83V65.8544H497.456V66.5888ZM497.456 51.2887H479.83V50.5543H497.456V51.2887ZM497.456 4.65118H479.83V3.91669H497.456V4.65118Z" fill="#1B1918"/>
<path fill-rule="evenodd" clip-rule="evenodd" d="M27.4188 19.9525H9.79239V19.218H27.4188V19.9525ZM27.4188 36.0362H9.79239V34.4694H27.4188V36.0362ZM27.4188 66.5888H9.79239V65.8544H27.4188V66.5888ZM27.4188 51.2887H9.79239V50.5543H27.4188V51.2887ZM27.4188 4.65118H9.79239V3.91669H27.4188V4.65118Z" fill="#1B1918"/>
<path fill-rule="evenodd" clip-rule="evenodd" d="M0.880299 8.10138V16.503H0.0786972V7.36639H3.7583V8.10138H0.880299ZM6.9268 7.36639C7.3825 7.36639 7.7634 7.42748 8.0658 7.55008C8.3702 7.67248 8.6068 7.84978 8.7775 8.08188C8.9505 8.31368 9.0711 8.59381 9.141 8.92191C9.2113 9.25011 9.2462 9.61561 9.2462 10.018C9.2462 10.4031 9.2113 10.7619 9.141 11.0944C9.0711 11.4272 8.9462 11.7137 8.7709 11.9544C8.5956 12.1951 8.3504 12.3831 8.0394 12.5188C7.7262 12.6545 7.3343 12.7223 6.859 12.7223H5.8952V16.503H5.0934V7.36639H6.9268V7.36639ZM5.8952 11.9871H6.8151C7.1481 11.9871 7.4195 11.9413 7.6299 11.8494C7.84 11.7574 8.0065 11.624 8.1293 11.4534C8.2521 11.2826 8.3351 11.077 8.3788 10.8341C8.4229 10.5934 8.4448 10.3265 8.4448 10.0378C8.4448 9.76638 8.425 9.5104 8.3854 9.2742C8.3461 9.0356 8.2674 8.83219 8.1489 8.66159C8.0306 8.49099 7.8663 8.35308 7.6561 8.25238C7.4458 8.15178 7.1743 8.10138 6.8414 8.10138H5.8952V11.9871ZM12.4474 12.9981L13.8536 7.36639H14.6289L12.7235 14.5208C12.6007 14.9846 12.4716 15.3522 12.3359 15.6234C12.2 15.8947 12.0598 16.0982 11.9154 16.2339C11.7707 16.3696 11.6173 16.457 11.4554 16.4963C11.2932 16.5359 11.1289 16.5598 10.9624 16.5686H10.5551V15.9123H10.9362C11.1377 15.9123 11.3261 15.8204 11.5012 15.6365C11.6765 15.4528 11.821 15.142 11.935 14.7045L12.0664 14.1794L10.0294 7.37949H10.8312L12.408 12.9981H12.4474V12.9981ZM19.0522 16.503V8.12769H16.6473V16.503H15.8457V7.36639H19.854V16.503H19.0522V16.503ZM24.8162 16.503V8.12769H22.4114V16.503H21.6096V7.36639H25.6178V16.503H24.8162V16.503ZM30.8297 16.503L30.3436 14.2975H28.07L27.5971 16.503H26.8348L28.806 7.36639H29.6208L31.6316 16.503H30.8297V16.503ZM29.187 8.70529L28.7534 10.9107L28.2015 13.5363H30.1991L29.647 10.8845L29.2265 8.70529H29.187V8.70529ZM0.0786972 32.0483V22.9117H0.880299V26.9549H1.6163C1.7565 26.9549 1.9032 26.9396 2.0566 26.909C2.2099 26.8783 2.359 26.8127 2.5033 26.712C2.6479 26.6113 2.7795 26.4735 2.8976 26.2941C3.0159 26.1147 3.1103 25.8785 3.1802 25.581L3.8239 22.9117H4.5599L3.9687 25.559C3.8637 26.0054 3.7125 26.3795 3.5153 26.6858C3.3182 26.9921 3.075 27.1934 2.7859 27.2896C3.1627 27.3947 3.4452 27.6047 3.6336 27.9198C3.8218 28.2347 3.9642 28.6221 4.0607 29.0771L4.7176 32.0483H3.9031L3.2853 29.1866C3.2152 28.8802 3.1255 28.6331 3.0159 28.4449C2.9064 28.2567 2.7838 28.1102 2.6479 28.005C2.5121 27.9 2.3633 27.8301 2.2013 27.795C2.0392 27.76 1.8748 27.7426 1.7084 27.7426H0.880299V32.0483H0.0786972V32.0483ZM9.956 29.7904C9.956 30.5604 9.783 31.1447 9.4391 31.5428C9.0931 31.9412 8.5717 32.1402 7.8731 32.1402C7.1745 32.1402 6.6575 31.9519 6.3202 31.5757C5.9851 31.1995 5.8163 30.6742 5.8163 30.0005V25.1957C5.8163 24.872 5.8516 24.5657 5.9217 24.2768C5.9916 23.9881 6.1077 23.7365 6.2677 23.522C6.4297 23.3078 6.6444 23.1391 6.9093 23.0167C7.1767 22.8941 7.5028 22.8328 7.8862 22.8328C8.2783 22.8328 8.6091 22.8877 8.8762 22.9969C9.141 23.1064 9.3537 23.2639 9.5112 23.4695C9.6669 23.6752 9.7807 23.9202 9.8508 24.2047C9.9209 24.4891 9.956 24.8064 9.956 25.1564V29.7904V29.7904ZM9.1542 25.0383C9.1542 24.8458 9.1324 24.662 9.0885 24.487C9.0449 24.3119 8.9748 24.1566 8.8806 24.0208C8.784 23.8853 8.6549 23.7758 8.4951 23.6928C8.333 23.6096 8.1338 23.568 7.8994 23.568C7.6475 23.568 7.4371 23.6227 7.2707 23.7322C7.1064 23.8414 6.9751 23.9793 6.8786 24.1456C6.7846 24.3119 6.7166 24.4934 6.6773 24.6904C6.6379 24.8873 6.6181 25.0733 6.6181 25.2482V30.0136C6.6181 30.1885 6.6422 30.3593 6.6904 30.5256C6.7384 30.6918 6.813 30.8405 6.9115 30.9719C7.0124 31.1031 7.1438 31.2081 7.3036 31.2868C7.4655 31.3658 7.6606 31.4051 7.8862 31.4051C8.3482 31.4051 8.6747 31.2563 8.8674 30.9588C9.058 30.6611 9.1542 30.3023 9.1542 29.8822V25.0383V25.0383ZM16.6001 25.1433C16.5565 25.2482 16.495 25.4037 16.4162 25.6094C16.3375 25.815 16.2562 26.0316 16.1732 26.2592C16.0898 26.4866 16.0067 26.7032 15.9233 26.909C15.8402 27.1147 15.7811 27.27 15.7458 27.375C15.7372 27.4012 15.7086 27.4778 15.6607 27.6047C15.6125 27.7316 15.5531 27.8826 15.4832 28.0575C15.4131 28.2326 15.3363 28.4208 15.2533 28.6221C15.1699 28.8233 15.0933 29.0115 15.0232 29.1866C14.953 29.3616 14.8917 29.5124 14.8391 29.6394C14.7866 29.7663 14.756 29.8428 14.7472 29.8691H14.3003C14.2566 29.7553 14.1887 29.5847 14.0966 29.3571C14.0047 29.1296 13.9082 28.8891 13.8077 28.6352C13.7069 28.3814 13.6105 28.1407 13.5185 27.9131C13.4266 27.6856 13.3584 27.515 13.3148 27.4012L12.4738 25.1695H12.4211V32.0483H11.6195V22.9117H12.4342C12.4869 23.043 12.5656 23.2443 12.671 23.5155C12.776 23.7868 12.8855 24.0733 12.9993 24.3753C13.1132 24.6773 13.2229 24.9639 13.3279 25.2351C13.4331 25.5066 13.5075 25.7077 13.5514 25.8391L14.5108 28.3857H14.5502C14.5939 28.2633 14.6595 28.0839 14.7472 27.8475C14.8348 27.6113 14.929 27.3618 15.0296 27.0992C15.1305 26.8368 15.227 26.5851 15.3189 26.3444C15.4109 26.1037 15.4787 25.9221 15.5226 25.7997C15.5312 25.7735 15.5641 25.6859 15.6211 25.5371C15.6781 25.3883 15.7458 25.2134 15.8248 25.012C15.9037 24.8107 15.9891 24.5919 16.0809 24.3557C16.1732 24.1194 16.2562 23.9006 16.3308 23.6993C16.4053 23.4979 16.4709 23.3252 16.5279 23.1808C16.5849 23.0363 16.6176 22.9466 16.6264 22.9117H17.4544V32.0483H16.6526V25.1433H16.6001V25.1433ZM22.4033 32.0483V23.673H19.9983V32.0483H19.1967V22.9117H23.205V32.0483H22.4033V32.0483ZM28.4169 32.0483L27.9308 29.8428H25.6572L25.1842 32.0483H24.422L26.3932 22.9117H27.2079L29.2187 32.0483H28.4169ZM26.7741 24.2506L26.3405 26.456L25.7886 29.0816H27.7863L27.2342 26.4298L26.8137 24.2506H26.7741V24.2506ZM33.7077 32.0483V27.7294H31.1976V32.0483H30.3959V22.9117H31.1976V27.0205H33.7077V22.9117H34.5092V32.0483H33.7077ZM39.695 24.8677L37.0009 32.0483H36.2518V22.9117H37.0534V30.1055L37.1061 30.1186L39.7607 22.9117H40.536V32.0483H39.7344V24.8677H39.695ZM43.2773 21.1395C43.3122 21.3671 43.4197 21.577 43.5993 21.7696C43.7789 21.9621 44 22.0584 44.2628 22.0584C44.5433 22.0584 44.7732 21.9664 44.9528 21.7827C45.1324 21.599 45.2354 21.3845 45.2617 21.1395H45.9187C45.9011 21.3058 45.8572 21.4785 45.7873 21.6579C45.7172 21.8373 45.6142 22.0036 45.4785 22.1567C45.3426 22.3099 45.1739 22.4347 44.9724 22.531C44.7711 22.6272 44.5345 22.6754 44.2628 22.6754C43.9738 22.6754 43.7264 22.6272 43.5204 22.531C43.3145 22.4347 43.1457 22.3099 43.0145 22.1567C42.8831 22.0036 42.7844 21.8373 42.7188 21.6579C42.6532 21.4785 42.6159 21.3058 42.6069 21.1395H43.2773V21.1395ZM45.669 24.8677L42.9749 32.0483H42.2258V22.9117H43.0276V30.1055L43.0801 30.1186L45.7348 22.9117H46.5102V32.0483H45.7084V24.8677H45.669ZM4.1394 45.3357C4.1394 46.1058 3.9665 46.69 3.6226 47.0881C3.2767 47.4865 2.7554 47.6855 2.0566 47.6855C1.358 47.6855 0.841 47.4973 0.5037 47.121C0.1688 46.7448 0 46.2195 0 45.5458V40.7411C0 40.4173 0.0349987 40.111 0.105099 39.8221C0.175299 39.5335 0.291199 39.2818 0.451199 39.0673C0.613199 38.8531 0.827799 38.6844 1.093 38.562C1.3601 38.4394 1.6864 38.3781 2.0697 38.3781C2.4618 38.3781 2.7926 38.433 3.0597 38.5423C3.3247 38.6517 3.5372 38.8092 3.6949 39.0148C3.8506 39.2205 3.9642 39.4655 4.0345 39.7501C4.1044 40.0344 4.1394 40.3517 4.1394 40.7017V45.3357V45.3357ZM3.3378 40.5836C3.3378 40.3911 3.3161 40.2074 3.272 40.0323C3.2284 39.8572 3.1582 39.7019 3.064 39.5662C2.9677 39.4306 2.8384 39.3212 2.6786 39.2381C2.5164 39.1549 2.3173 39.1134 2.0828 39.1134C1.8312 39.1134 1.6206 39.168 1.4544 39.2775C1.29 39.3868 1.1586 39.5246 1.0621 39.6909C0.968099 39.8572 0.900299 40.0387 0.860699 40.2358C0.821399 40.4326 0.801598 40.6187 0.801598 40.7935V45.5589C0.801598 45.7338 0.825698 45.9046 0.873898 46.0709C0.921998 46.2372 0.9965 46.3858 1.0952 46.5172C1.1958 46.6485 1.3272 46.7534 1.4873 46.8322C1.6492 46.9111 1.8443 46.9505 2.0697 46.9505C2.5317 46.9505 2.8582 46.8016 3.0509 46.5041C3.2415 46.2064 3.3378 45.8476 3.3378 45.4275V40.5836V40.5836ZM7.7744 38.3781C8.4138 38.3781 8.9088 38.5532 9.2593 38.9032C9.6097 39.2534 9.785 39.7479 9.785 40.3868L8.9701 40.5442C8.9791 40.0716 8.8782 39.715 8.6681 39.4743C8.4577 39.2336 8.1553 39.1134 7.7613 39.1134C7.5335 39.1134 7.3429 39.157 7.1896 39.2446C7.0362 39.3321 6.9113 39.4481 6.8151 39.5948C6.7186 39.7391 6.6487 39.9032 6.6048 40.0869C6.5609 40.273 6.539 40.461 6.539 40.6537V45.5413C6.539 45.7164 6.5609 45.8893 6.6048 46.0621C6.6487 46.2327 6.7186 46.3837 6.8151 46.5151C6.9113 46.6485 7.0362 46.7534 7.1896 46.8322C7.3429 46.9111 7.5335 46.9505 7.7613 46.9505C8.1205 46.9505 8.4093 46.8388 8.6285 46.6156C8.8477 46.3925 8.9614 46.027 8.9701 45.5196L9.7981 45.6639C9.7807 46.3378 9.5901 46.8431 9.2264 47.1802C8.8629 47.517 8.3788 47.6855 7.7744 47.6855C7.1085 47.6855 6.6026 47.5039 6.2566 47.1408C5.9105 46.7775 5.7374 46.2546 5.7374 45.5721V40.7542C5.7374 40.4304 5.7724 40.1241 5.8425 39.8353C5.9127 39.5466 6.0264 39.2949 6.1841 39.0805C6.342 38.8662 6.55 38.6954 6.8085 38.5685C7.0668 38.4416 7.389 38.3781 7.7744 38.3781V38.3781ZM14.5371 47.5936V43.2748H12.0269V47.5936H11.2253V38.4571H12.0269V42.5658H14.5371V38.4571H15.3385V47.5936H14.5371ZM21.1681 45.3357C21.1681 46.1058 20.9952 46.69 20.6513 47.0881C20.3052 47.4865 19.7839 47.6855 19.0853 47.6855C18.3867 47.6855 17.8696 47.4973 17.5324 47.121C17.1973 46.7448 17.0285 46.2195 17.0285 45.5458V40.7411C17.0285 40.4173 17.0637 40.111 17.1338 39.8221C17.2037 39.5335 17.3199 39.2818 17.4799 39.0673C17.6419 38.8531 17.8565 38.6844 18.1215 38.562C18.3888 38.4394 18.7149 38.3781 19.0984 38.3781C19.4905 38.3781 19.8213 38.433 20.0884 38.5423C20.3532 38.6517 20.5659 38.8092 20.7233 39.0148C20.879 39.2205 20.9928 39.4655 21.063 39.7501C21.1331 40.0344 21.1681 40.3517 21.1681 40.7017V45.3357V45.3357ZM20.3663 40.5836C20.3663 40.3911 20.3446 40.2074 20.3007 40.0323C20.257 39.8572 20.1869 39.7019 20.0927 39.5662C19.9962 39.4306 19.8671 39.3212 19.7073 39.2381C19.5451 39.1549 19.3459 39.1134 19.1115 39.1134C18.8596 39.1134 18.6493 39.168 18.4828 39.2775C18.3185 39.3868 18.1873 39.5246 18.0907 39.6909C17.9967 39.8572 17.9288 40.0387 17.8894 40.2358C17.85 40.4326 17.8303 40.6187 17.8303 40.7935V45.5589C17.8303 45.7338 17.8544 45.9046 17.9025 46.0709C17.9505 46.2372 18.0251 46.3858 18.1236 46.5172C18.2245 46.6485 18.3559 46.7534 18.5157 46.8322C18.6777 46.9111 18.8728 46.9505 19.0984 46.9505C19.5604 46.9505 19.8869 46.8016 20.0796 46.5041C20.2702 46.2064 20.3663 45.8476 20.3663 45.4275V40.5836ZM25.9463 42.8022C26.3493 42.9246 26.6274 43.1762 26.7806 43.557C26.9339 43.9377 27.0107 44.3905 27.0107 44.9156C27.0107 45.8696 26.8137 46.5544 26.4192 46.97C26.025 47.3858 25.4425 47.5936 24.6715 47.5936H22.8448V38.4571H24.7635C25.1578 38.4571 25.4929 38.5096 25.7688 38.6145C26.0448 38.7195 26.2682 38.8727 26.4392 39.074C26.6098 39.2753 26.7326 39.5225 26.807 39.8157C26.8814 40.1089 26.9186 40.4393 26.9186 40.8069C26.9186 41.2794 26.8487 41.6731 26.7085 41.9882C26.5683 42.3033 26.3143 42.5572 25.9463 42.7497V42.8022ZM26.2222 44.85C26.2222 44.2987 26.1149 43.8743 25.9002 43.5766C25.6856 43.2791 25.3154 43.1302 24.79 43.1302H23.6464V46.8584H24.724C25.0395 46.8584 25.2956 46.8059 25.4929 46.7009C25.6899 46.596 25.8411 46.4516 25.9463 46.2677C26.0512 46.084 26.1237 45.8696 26.1631 45.6246C26.2024 45.3795 26.2222 45.1212 26.2222 44.85ZM26.1302 40.7935C26.1302 40.2773 26.0164 39.8813 25.7886 39.6055C25.5608 39.33 25.1709 39.1921 24.619 39.1921H23.6464V42.4214H24.724C25.241 42.4214 25.6045 42.2814 25.8148 42.0013C26.025 41.7213 26.1302 41.3188 26.1302 40.7935ZM32.0781 47.5936L31.592 45.3882H29.3184L28.8454 47.5936H28.083L30.0544 38.4571H30.8691L32.8799 47.5936H32.0781V47.5936ZM30.4353 39.7959L30.0017 42.0013L29.4498 44.6269H31.4475L30.8954 41.9751L30.4747 39.7959H30.4353V39.7959ZM37.3689 47.5936V43.2748H34.8588V47.5936H34.0571V38.4571H34.8588V42.5658H37.3689V38.4571H38.1704V47.5936H37.3689ZM43.3956 47.5936L42.9093 45.3882H40.6359L40.1627 47.5936H39.4005L41.3719 38.4571H42.1864L44.1972 47.5936H43.3956V47.5936ZM41.7528 39.7959L41.319 42.0013L40.7671 44.6269H42.7648L42.2127 41.9751L41.7922 39.7959H41.7528V39.7959ZM3.1802 58.3475C3.5832 58.4699 3.8613 58.7216 4.0147 59.1023C4.1678 59.483 4.2446 59.9358 4.2446 60.4609C4.2446 61.4149 4.0476 62.0998 3.6533 62.5154C3.2589 62.9311 2.6764 63.1389 1.9054 63.1389H0.0786972V54.0024H1.9976C2.3917 54.0024 2.727 54.0549 3.0027 54.1599C3.2789 54.2648 3.5021 54.418 3.6731 54.6193C3.8439 54.8206 3.9665 55.0678 4.0409 55.361C4.1154 55.6542 4.1526 55.9846 4.1526 56.3522C4.1526 56.8248 4.0826 57.2184 3.9424 57.5335C3.8022 57.8487 3.5482 58.1025 3.1802 58.295V58.3475V58.3475ZM3.4561 60.3953C3.4561 59.844 3.3488 59.4196 3.1341 59.1219C2.9197 58.8244 2.5495 58.6755 2.0239 58.6755H0.880299V62.4037H1.9579C2.2734 62.4037 2.5296 62.3512 2.727 62.2463C2.924 62.1413 3.075 61.9969 3.1802 61.813C3.2853 61.6293 3.3576 61.4149 3.397 61.1699C3.4363 60.9249 3.4561 60.6665 3.4561 60.3953V60.3953ZM3.3641 56.3389C3.3641 55.8226 3.2503 55.4266 3.0225 55.1508C2.7947 54.8753 2.4048 54.7374 1.8529 54.7374H0.880299V57.9668H1.9579C2.4749 57.9668 2.8384 57.8267 3.0488 57.5467C3.2589 57.2666 3.3641 56.8641 3.3641 56.3389V56.3389ZM10.5421 63.1389V54.8555L9.1755 55.8927V55.0263L10.5157 54.0024H11.3436V63.1389H10.5421V63.1389ZM14.5711 57.6232C14.5711 57.8945 14.663 58.109 14.8447 58.2688C15.0288 58.4262 15.259 58.505 15.5371 58.505C15.7035 58.505 15.8459 58.4723 15.9685 58.4064C16.089 58.3408 16.1898 58.2556 16.2686 58.1483C16.3475 58.0433 16.4043 57.9231 16.4439 57.7874C16.4832 57.6516 16.5028 57.5161 16.5028 57.3847V55.5273C16.5028 55.2472 16.4131 55.0306 16.2357 54.8753C16.0561 54.7221 15.8283 54.6456 15.5502 54.6456C15.2721 54.6456 15.04 54.7221 14.8514 54.8753C14.6652 55.0306 14.5711 55.2472 14.5711 55.5273V57.6232V57.6232ZM16.0561 58.9644C15.9685 59.0432 15.8545 59.1088 15.7145 59.1614C15.5743 59.2139 15.4297 59.2402 15.2809 59.2402C14.755 59.2402 14.3718 59.0825 14.1311 58.7676C13.89 58.4525 13.7695 58.0586 13.7695 57.586V55.5907C13.7695 55.3107 13.8177 55.0657 13.9141 54.8555C14.0104 54.6456 14.1375 54.4705 14.2995 54.3304C14.4617 54.1904 14.6499 54.0854 14.8626 54.0155C15.0772 53.9454 15.3005 53.9103 15.5371 53.9103C16.0692 53.9103 16.4963 54.0504 16.8205 54.3304C17.1424 54.6105 17.3046 55.0306 17.3046 55.5907V57.1922C17.3046 57.5424 17.2805 57.8355 17.2321 58.0717C17.1863 58.3081 17.1272 58.5181 17.0571 58.702L15.3377 63.1389H14.5187C14.6939 62.6838 14.8714 62.22 15.051 61.7474C15.2306 61.2749 15.3947 60.8438 15.5435 60.4544C15.6926 60.0649 15.8175 59.7368 15.918 59.4699C16.0189 59.203 16.078 59.0432 16.0954 58.9907L16.0561 58.9644V58.9644ZM19.7566 57.6232C19.7566 57.8945 19.8487 58.109 20.0304 58.2688C20.2145 58.4262 20.4445 58.505 20.7226 58.505C20.889 58.505 21.0314 58.4723 21.154 58.4064C21.2745 58.3408 21.3753 58.2556 21.4541 58.1483C21.533 58.0433 21.5898 57.9231 21.6293 57.7874C21.6689 57.6516 21.6885 57.5161 21.6885 57.3847V55.5273C21.6885 55.2472 21.5986 55.0306 21.4212 54.8753C21.2416 54.7221 21.0138 54.6456 20.7357 54.6456C20.4576 54.6456 20.2255 54.7221 20.0371 54.8753C19.8508 55.0306 19.7566 55.2472 19.7566 55.5273V57.6232V57.6232ZM21.2416 58.9644C21.154 59.0432 21.04 59.1088 20.9 59.1614C20.76 59.2139 20.6152 59.2402 20.4664 59.2402C19.9405 59.2402 19.5573 59.0825 19.3166 58.7676C19.0755 58.4525 18.955 58.0586 18.955 57.586V55.5907C18.955 55.3107 19.0032 55.0657 19.0998 54.8555C19.1959 54.6456 19.323 54.4705 19.4852 54.3304C19.6474 54.1904 19.8356 54.0854 20.0481 54.0155C20.2627 53.9454 20.486 53.9103 20.7226 53.9103C21.2547 53.9103 21.682 54.0504 22.006 54.3304C22.3279 54.6105 22.4901 55.0306 22.4901 55.5907V57.1922C22.4901 57.5424 22.466 57.8355 22.4178 58.0717C22.3718 58.3081 22.3127 58.5181 22.2427 58.702L20.5232 63.1389H19.7042C19.8794 62.6838 20.0569 62.22 20.2365 61.7474C20.4161 61.2749 20.5804 60.8438 20.729 60.4544C20.8781 60.0649 21.003 59.7368 21.1035 59.4699C21.2044 59.203 21.2635 59.0432 21.2809 58.9907L21.2416 58.9644V58.9644ZM26.0988 63.1389V54.8555L24.732 55.8927V55.0263L26.0724 54.0024H26.9002V63.1389H26.0988ZM32.961 54.7374V63.1389H32.1594V54.0024H35.839V54.7374H32.961ZM41.2348 60.881C41.2348 61.6511 41.0619 62.2353 40.718 62.6335C40.3719 63.0318 39.8506 63.2308 39.152 63.2308C38.4534 63.2308 37.9363 63.0426 37.5991 62.6664C37.264 62.2901 37.0952 61.7649 37.0952 61.0911V56.2864C37.0952 55.9626 37.1304 55.6563 37.2005 55.3675C37.2704 55.0788 37.3866 54.8271 37.5466 54.6127C37.7086 54.3984 37.9232 54.2298 38.1882 54.1074C38.4555 53.9848 38.7818 53.9235 39.1651 53.9235C39.5572 53.9235 39.888 53.9783 40.1551 54.0876C40.4201 54.1971 40.6326 54.3545 40.7902 54.5602C40.9457 54.7658 41.0595 55.0108 41.1296 55.2954C41.1998 55.5798 41.2348 55.897 41.2348 56.247V60.881V60.881ZM40.4332 56.1289C40.4332 55.9364 40.4115 55.7527 40.3674 55.5776C40.3237 55.4025 40.2536 55.2472 40.1594 55.1115C40.063 54.976 39.9338 54.8665 39.774 54.7834C39.6118 54.7002 39.4126 54.6587 39.1782 54.6587C38.9263 54.6587 38.716 54.7133 38.5495 54.8228C38.3854 54.9321 38.254 55.07 38.1574 55.2362C38.0634 55.4025 37.9955 55.5841 37.9561 55.7811C37.9167 55.9779 37.897 56.164 37.897 56.3389V61.1043C37.897 61.2792 37.921 61.4499 37.9692 61.6162C38.0174 61.7825 38.0918 61.9311 38.1903 62.0626C38.2912 62.1938 38.4226 62.2987 38.5826 62.3775C38.7444 62.4564 38.9397 62.4958 39.1651 62.4958C39.6271 62.4958 39.9536 62.3469 40.1463 62.0494C40.3368 61.7517 40.4332 61.3929 40.4332 60.9729V56.1289V56.1289ZM42.9906 64.8718H42.2677V62.4564L42.7276 62.4037C42.859 62.2725 42.9728 62.1303 43.0693 61.9772C43.1657 61.824 43.2423 61.6293 43.2993 61.3929C43.3563 61.1568 43.4001 60.8657 43.4307 60.52C43.4612 60.1744 43.4853 59.7476 43.5029 59.2402L43.6344 54.0024H47.5504V62.43H48.0367V64.8718H47.314V63.1389H42.9906V64.8718ZM46.7489 62.43V54.7374H44.3704L44.2519 59.2445C44.2344 59.9971 44.1863 60.625 44.1075 61.1327C44.0286 61.6403 43.8796 62.0712 43.6606 62.43H46.7489V62.43ZM51.1459 59.634L52.5521 54.0024H53.3275L51.4219 61.1568C51.2993 61.6205 51.17 61.9881 51.0343 62.2594C50.8986 62.5306 50.7584 62.7341 50.6138 62.8698C50.4691 63.0056 50.3157 63.0929 50.154 63.1323C49.9918 63.1718 49.8275 63.1957 49.661 63.2046H49.2537V62.5483H49.6348C49.8363 62.5483 50.0247 62.4564 50.1998 62.2725C50.3751 62.0888 50.5196 61.778 50.6334 61.3405L50.765 60.8154L48.728 54.0155H49.5296L51.1066 59.634H51.1459V59.634Z" fill="#1B1918"/>
</svg>
