<svg width="239" height="341" viewBox="0 0 239 341" fill="none" xmlns="http://www.w3.org/2000/svg">
<path fill-rule="evenodd" clip-rule="evenodd" d="M238.18 213.618H216.336V214.582H238.18V213.618ZM191.184 340.873L160.472 268.508C157.115 269.378 153.578 269.813 149.862 269.813C145.241 269.813 140.896 269.14 136.83 267.795C132.763 266.449 129.158 264.431 126.015 261.741C122.872 259.05 120.377 255.639 118.528 251.507C116.68 247.375 115.756 242.426 115.756 236.661V229.211V219.331C112.799 219.119 109.914 218.646 107.126 217.934V233.202C107.126 234.135 107.105 235.054 107.064 235.958C106.631 245.474 103.912 253.348 98.9098 259.579C93.4327 266.401 84.1597 269.813 71.0912 269.813C61.2646 269.813 50.7792 266.612 44.6663 258.425C39.0447 250.786 36.2103 240.841 36.2103 228.541C36.2103 223.423 36.4532 210.045 36.9388 203.924C39.3446 204.268 41.7903 204.598 44.2743 204.913C43.7028 212.49 43.4171 223.448 43.4171 228.589C43.4171 233.009 43.8494 237.334 44.714 241.561C45.5788 245.79 47.0681 249.489 49.1346 252.66C51.2487 255.831 54.1791 258.378 57.8786 260.299C61.8018 262.311 66.9353 263.182 71.3795 263.182C79.8355 263.182 86.7183 260.89 91.9913 256.264C97.2881 251.617 99.9187 244.012 99.9187 233.394V215.476C94.1692 213 88.988 209.456 84.6252 205.093C75.7496 196.217 70.2598 183.955 70.2598 170.412C70.2598 156.868 75.7496 144.606 84.6252 135.73C86.9865 133.369 89.5875 131.247 92.3887 129.405C88.9755 126.16 84.2697 124.113 78.2725 123.262C77.4243 123.141 76.6919 123.083 75.8386 123.053L73.154 116.749L86.8226 94.9709L77.9539 74.0739H37.9394V67.4434H75.1396L46.8201 0.715195L47.5543 0.402893L76.0065 67.4434H108.567V74.9387L91.006 102.786L100.48 125.109C105.239 123.129 110.378 121.877 115.756 121.492V98.2886C115.756 92.7154 116.68 87.8625 118.528 83.7307C120.376 79.5989 122.872 76.1877 126.015 73.497C129.158 70.8064 132.763 68.7884 136.83 67.4431C140.896 66.098 145.241 65.4254 149.862 65.4254C154.484 65.4254 158.828 66.098 162.895 67.4431C166.962 68.7884 170.567 70.8064 173.709 73.497C176.852 76.1877 179.347 79.5992 181.196 83.7307C183.044 87.8627 183.969 92.7157 183.969 98.2886V124.555V148.055V236.661C183.969 242.426 183.044 247.375 181.196 251.507C179.348 255.639 176.852 259.05 173.709 261.741C170.567 264.431 166.962 266.449 162.895 267.795C162.351 267.974 161.803 268.142 161.25 268.298L191.918 340.56L191.184 340.873V340.873ZM157.83 262.281L138.076 215.738C133.283 217.724 128.106 218.974 122.688 219.343V229.336V236.901C122.688 244.973 125.183 251.411 130.175 256.12C135.166 260.828 141.728 263.182 149.862 263.182C152.701 263.182 155.356 262.882 157.83 262.281V262.281ZM99.7458 125.421L90.4878 103.607L82.0683 116.959C84.4137 117.36 86.5681 117.916 88.5319 118.626C92.9469 120.223 96.5347 122.554 99.2965 125.62C99.4459 125.553 99.5955 125.487 99.7458 125.421V125.421ZM78.8204 74.0739L87.3397 94.1471L99.938 74.0739H78.8204ZM138.811 215.426L158.611 262.08C162.736 260.954 166.336 258.968 169.411 256.12C174.495 251.411 177.037 244.973 177.037 236.901V147.305V124.368V98.3368C177.037 90.2651 174.495 83.8268 169.411 79.1184C164.328 74.4101 157.811 72.0556 149.862 72.0556C141.728 72.0556 135.166 74.4101 130.175 79.1184C125.184 83.8268 122.688 90.2654 122.688 98.3368V121.48C134.884 122.31 145.857 127.599 153.988 135.73C162.864 144.606 168.354 156.868 168.354 170.412C168.354 183.955 162.864 196.217 153.988 205.093C149.655 209.426 144.514 212.952 138.811 215.426V215.426ZM238.18 191.776H216.336V192.739H238.18V191.776ZM238.18 148.086H216.336V149.049H238.18V148.086ZM238.18 126.241H216.336V127.204H238.18V126.241ZM238.18 169.448H216.336V171.375H238.18V169.448ZM0.141388 214.582H21.9858V213.618H0.141388V214.582ZM0.141388 192.739H21.9858V191.776H0.141388V192.739ZM0.141388 149.049H21.9858V148.086H0.141388V149.049ZM0.141388 127.204H21.9858V126.241H0.141388V127.204ZM0.141388 171.375H21.9858V169.448H0.141388V171.375ZM127.471 155.369C127.27 156.316 126.97 157.252 126.648 157.909C130.496 158.054 134.198 158.312 137.696 158.67C143.872 159.3 150.293 160.276 156.267 162.02C161.401 157.741 163.528 154.161 162.575 151.916C161.47 149.313 156.168 148.761 147.703 150.097C141.933 151.007 134.996 152.795 127.471 155.369V155.369ZM125.058 196.893C124.692 195.963 124.201 194.443 123.809 193.41C122.66 193.834 121.306 194.293 119.812 194.743V218.444C125.933 218.381 131.779 217.173 137.147 215.024L129.452 196.893H125.058ZM118.801 195.039C110.012 197.552 97.2156 199.447 92.3598 192.528C91.9749 192.595 91.5939 192.658 91.2183 192.717C84.7593 193.736 79.6348 193.65 76.5615 192.347C78.8553 196.808 81.8266 200.864 85.3401 204.378C93.9223 212.96 105.737 218.309 118.801 218.444V195.039ZM91.3376 190.658C89.9747 187.364 90.6369 184.101 92.5024 181.042C89.7474 180.587 87.1869 180.064 84.8602 179.482C83.9897 179.265 83.1509 179.038 82.3467 178.803C77.2123 183.082 74.8669 186.559 75.8199 188.805C77.4827 192.722 88.2351 191.166 91.3376 190.658V190.658ZM93.1067 180.118C97.2663 174.147 105.805 169.043 112.321 166.153C111.775 164.87 111.246 163.461 110.786 161.999C100.306 166.74 91.3076 171.946 84.9668 176.73C84.3874 177.167 83.8312 177.599 83.2983 178.026C83.8828 178.189 84.4854 178.348 85.1051 178.503C87.5299 179.109 90.212 179.651 93.1067 180.118V180.118ZM110.223 160.04C110.133 159.696 110.049 159.352 109.97 159.007C100.353 159.476 91.76 160.657 85.1051 162.32C76.5578 164.457 71.2712 167.323 71.2712 170.412C71.2712 172.966 74.8879 175.368 80.975 177.332C81.8356 176.603 82.762 175.864 83.7499 175.118C90.2534 170.211 99.487 164.876 110.223 160.04V160.04ZM109.757 158.005C109.259 155.467 109.032 152.862 109.686 150.329L99.6086 126.588C94.2607 128.995 89.4328 132.352 85.3401 136.445C77.2452 144.54 72.0269 155.511 71.3474 167.694C73.3836 165.201 78.1778 163.011 84.8602 161.341C91.5386 159.671 100.14 158.484 109.757 158.005ZM110.754 147.681C112.508 144.652 115.403 143.417 118.801 143.485V122.379C112.68 122.442 106.834 123.65 101.466 125.799L110.754 147.681ZM119.812 143.549C124.934 144.1 127.593 148.19 127.767 153.14C135.04 150.701 141.757 148.995 147.395 148.106C153.854 147.087 158.978 147.173 162.052 148.476C159.758 144.015 156.787 139.959 153.273 136.445C144.691 127.863 132.877 122.514 119.812 122.379V143.549V143.549ZM121.822 155.249C122.068 154.83 122.178 154.136 122.173 153.513C122.155 151.668 121.719 149.738 119.812 149.089V156.02C120.475 155.763 121.171 155.496 121.822 155.249ZM118.801 148.888C118.712 148.881 118.621 148.876 118.528 148.873C114.024 148.996 114.638 154.703 115.366 157.81C116.518 157.33 117.663 156.865 118.801 156.416V148.888V148.888ZM115.941 159.756C116.746 162.05 117.847 164.39 118.801 166.638V158.783C118.636 158.783 118.472 158.784 118.308 158.785C117.522 159.101 116.733 159.425 115.941 159.757V159.756ZM127.052 186.076C129.736 184.987 132.763 183.604 135.505 182.362C132.378 182.637 129.105 182.836 125.724 182.947L127.052 186.076ZM140.127 181.885L141.65 185.473C137.822 187.319 133.622 189.246 129.201 191.14L139.005 214.235C144.353 211.828 149.181 208.47 153.273 204.378C161.368 196.283 166.586 185.312 167.266 173.13C165.229 175.622 160.435 177.812 153.753 179.482C149.817 180.466 145.213 181.283 140.127 181.885V181.885ZM164.781 154.898C163.89 157.22 161.723 159.89 158.519 162.729C162.719 164.158 165.753 165.842 167.266 167.694C167.018 163.239 166.162 158.947 164.781 154.898ZM157.639 163.492C153.549 166.954 148.874 169.977 144.257 172.668C138.833 175.83 132.58 178.991 125.788 181.934C136.558 181.574 146.201 180.329 153.508 178.503C162.056 176.366 167.342 173.5 167.342 170.412C167.342 167.857 163.726 165.455 157.639 163.492V163.492ZM119.893 184.375L119.812 184.407V188.922C120.496 188.687 121.093 188.459 121.574 188.249C121.027 186.978 120.464 185.683 119.893 184.375ZM118.801 184.803C112.486 187.254 106.428 189.219 100.923 190.651C105.544 192.404 113.821 190.813 118.801 189.254V184.803V184.803ZM73.8326 185.926C74.7229 183.604 76.8903 180.933 80.0946 178.094C75.8945 176.665 72.8603 174.98 71.3474 173.129C71.596 177.584 72.4518 181.876 73.8326 185.926ZM99.8648 181.026C105.668 181.663 112.069 182.023 118.801 182.04V181.883C117.254 178.358 115.689 174.806 114.259 171.466C110.013 173.281 103.362 176.935 99.8648 181.026V181.026ZM98.6303 189.152C104.426 187.737 110.928 185.681 117.751 183.046C111.127 182.994 104.834 182.611 99.1289 181.96C97.7232 183.911 97.1064 185.935 97.8593 187.888C98.0436 188.365 98.3052 188.784 98.6303 189.152V189.152ZM124.582 180.257C131.427 177.31 137.722 174.138 143.165 170.97C147.368 168.523 151.515 165.84 155.315 162.797C149.536 161.192 143.433 160.266 137.475 159.663C132.015 159.11 126.056 158.799 119.812 158.783V169.021L124.582 180.257Z" fill="#1B1918"/>
</svg>
