<svg width="1200" height="600" viewBox="0 0 1200 600" fill="none" xmlns="http://www.w3.org/2000/svg">
<g clip-path="url(#clip0)">
<path d="M167.716 205.103C167.716 208.998 168.203 211.857 169.176 213.683C170.271 215.386 172.279 216.603 175.2 217.334C178.242 218.064 182.988 218.429 189.438 218.429C189.803 218.429 189.986 218.794 189.986 219.524C189.986 220.254 189.803 220.619 189.438 220.619C184.449 220.619 180.554 220.558 177.755 220.437L161.875 220.254L149.645 220.437C147.332 220.558 144.229 220.619 140.335 220.619C140.092 220.619 139.97 220.254 139.97 219.524C139.97 218.794 140.092 218.429 140.335 218.429C144.959 218.429 148.306 218.125 150.375 217.516C152.565 216.908 154.025 215.752 154.756 214.048C155.486 212.222 155.851 209.484 155.851 205.834V121.318C155.851 117.668 155.486 114.99 154.756 113.287C154.025 111.583 152.565 110.427 150.375 109.818C148.306 109.088 144.959 108.723 140.335 108.723C140.092 108.723 139.97 108.358 139.97 107.628C139.97 106.898 140.092 106.533 140.335 106.533L149.462 106.715C154.573 106.959 158.65 107.08 161.692 107.08C164.734 107.08 168.142 106.898 171.914 106.533C173.375 106.533 175.687 106.472 178.851 106.35C182.015 106.107 184.753 105.985 187.065 105.985C198.261 105.985 207.205 108.48 213.898 113.469C220.713 118.459 224.12 126.064 224.12 136.286C224.12 144.318 222.112 151.072 218.096 156.548C214.202 162.024 209.152 166.101 202.946 168.778C196.861 171.456 190.533 172.794 183.962 172.794C180.311 172.794 177.33 172.49 175.017 171.881C174.652 171.881 174.47 171.577 174.47 170.969C174.47 170.604 174.531 170.239 174.652 169.874C174.896 169.508 175.139 169.387 175.382 169.508C177.33 169.995 179.52 170.239 181.954 170.239C189.986 170.239 196.739 167.622 202.216 162.389C207.813 157.157 210.612 149.612 210.612 139.755C210.612 130.141 207.996 122.596 202.763 117.12C197.53 111.522 190.837 108.723 182.684 108.723C178.303 108.723 175.139 108.967 173.192 109.453C171.245 109.94 169.845 111.096 168.994 112.922C168.142 114.625 167.716 117.546 167.716 121.683V205.103ZM356.455 218.429C356.698 218.429 356.82 218.794 356.82 219.524C356.82 220.254 356.698 220.619 356.455 220.619H332.907C329.865 220.619 324.146 215.569 315.749 205.469C307.352 195.368 297.373 181.495 285.812 163.85C282.527 164.58 279.119 164.945 275.59 164.945C274.86 164.945 272.122 164.762 267.376 164.397V205.834C267.376 209.606 267.741 212.344 268.471 214.048C269.201 215.752 270.601 216.908 272.67 217.516C274.86 218.125 278.268 218.429 282.892 218.429C283.257 218.429 283.439 218.794 283.439 219.524C283.439 220.254 283.257 220.619 282.892 220.619C279.119 220.619 276.138 220.558 273.947 220.437L261.352 220.254L248.94 220.437C246.749 220.558 243.646 220.619 239.63 220.619C239.387 220.619 239.265 220.254 239.265 219.524C239.265 218.794 239.387 218.429 239.63 218.429C244.255 218.429 247.662 218.125 249.852 217.516C252.043 216.908 253.503 215.752 254.233 214.048C255.085 212.222 255.511 209.484 255.511 205.834V121.318C255.511 117.668 255.146 114.99 254.416 113.287C253.686 111.583 252.225 110.427 250.035 109.818C247.966 109.088 244.62 108.723 239.995 108.723C239.63 108.723 239.448 108.358 239.448 107.628C239.448 106.898 239.63 106.533 239.995 106.533L248.94 106.715C254.051 106.959 258.188 107.08 261.352 107.08C264.03 107.08 266.524 107.019 268.836 106.898C271.149 106.776 273.096 106.654 274.678 106.533C279.18 106.168 283.257 105.985 286.908 105.985C296.521 105.985 303.945 108.176 309.177 112.556C314.41 116.937 317.027 122.779 317.027 130.08C317.027 136.652 315.079 142.614 311.185 147.969C307.413 153.202 302.363 157.339 296.035 160.382C306.257 175.106 314.836 186.667 321.773 195.064C328.831 203.339 335.037 209.302 340.391 212.953C345.868 216.603 351.222 218.429 356.455 218.429ZM267.376 160.016C270.418 160.503 274.008 160.747 278.146 160.747C287.638 160.747 294.392 158.678 298.408 154.54C302.545 150.403 304.614 144.014 304.614 135.374C304.614 125.882 302.484 119.067 298.225 114.929C294.088 110.792 288.003 108.723 279.971 108.723C275.225 108.723 271.94 109.575 270.114 111.279C268.289 112.982 267.376 116.451 267.376 121.683V160.016ZM412.855 222.81C401.538 222.81 391.437 220.193 382.554 214.961C373.792 209.606 366.977 202.426 362.109 193.421C357.363 184.294 354.99 174.376 354.99 163.667C354.99 151.133 358.154 140.424 364.482 131.54C370.81 122.535 378.903 115.781 388.76 111.279C398.739 106.776 408.9 104.525 419.244 104.525C430.805 104.525 440.966 107.263 449.728 112.739C458.49 118.093 465.183 125.212 469.807 134.096C474.553 142.98 476.926 152.411 476.926 162.389C476.926 173.463 474.005 183.625 468.164 192.873C462.323 202.122 454.474 209.424 444.617 214.778C434.881 220.132 424.294 222.81 412.855 222.81ZM419.244 218.976C427.519 218.976 434.942 216.968 441.513 212.953C448.207 208.937 453.439 203.035 457.212 195.246C461.106 187.458 463.053 178.209 463.053 167.501C463.053 156.061 460.923 145.9 456.664 137.017C452.405 128.133 446.381 121.197 438.593 116.207C430.926 111.218 421.921 108.723 411.577 108.723C398.191 108.723 387.725 113.043 380.181 121.683C372.636 130.324 368.863 142.189 368.863 157.278C368.863 168.717 370.993 179.183 375.252 188.675C379.511 198.045 385.474 205.469 393.141 210.945C400.807 216.299 409.508 218.976 419.244 218.976Z" fill="#020435"/>
<path d="M193.673 317.31C208.093 318.405 219.685 323.243 228.446 331.822C237.391 340.219 241.863 350.715 241.863 363.31C241.863 372.984 239.49 381.746 234.744 389.595C229.998 397.445 223.427 403.651 215.03 408.214C206.816 412.595 197.597 414.786 187.375 414.786C181.352 414.786 174.78 414.512 167.661 413.964C165.106 413.782 162.094 413.599 158.625 413.417C155.157 413.234 151.324 413.143 147.126 413.143L128.507 413.417C125.221 413.599 120.566 413.69 114.542 413.69C114.177 413.69 113.995 413.143 113.995 412.048C113.995 410.952 114.177 410.405 114.542 410.405C121.296 410.405 126.316 409.948 129.602 409.036C132.888 407.941 135.169 406.115 136.447 403.56C137.725 401.004 138.364 396.988 138.364 391.512V264.739C138.364 259.263 137.725 255.247 136.447 252.692C135.352 250.136 133.161 248.402 129.876 247.489C126.773 246.394 121.844 245.846 115.09 245.846C114.542 245.846 114.269 245.299 114.269 244.204C114.269 243.108 114.542 242.561 115.09 242.561L128.507 242.835C136.173 243.2 142.38 243.382 147.126 243.382C150.411 243.382 153.423 243.291 156.161 243.108C159.082 242.926 161.546 242.743 163.554 242.561C169.213 242.013 174.506 241.739 179.435 241.739C194.768 241.739 206.268 245.116 213.935 251.87C221.601 258.442 225.435 267.112 225.435 277.882C225.435 286.644 222.605 294.493 216.947 301.429C211.288 308.183 203.53 313.477 193.673 317.31ZM173.685 245.846C168.939 245.846 165.379 246.303 163.006 247.215C160.633 247.946 158.899 249.68 157.804 252.418C156.709 254.973 156.161 259.263 156.161 265.287V317.31L168.483 317.584C181.808 317.584 191.665 314.207 198.054 307.453C204.443 300.517 207.637 291.39 207.637 280.072C207.637 269.85 204.808 261.636 199.149 255.43C193.673 249.041 185.185 245.846 173.685 245.846ZM183.268 409.857C196.593 409.857 206.451 406.48 212.839 399.726C219.411 392.79 222.696 382.933 222.696 370.155C222.696 356.282 218.589 345.056 210.375 336.477C202.343 327.897 191.209 323.517 176.971 323.334C171.129 323.151 164.193 323.334 156.161 323.882V391.512C156.161 396.258 156.8 399.909 158.078 402.464C159.538 405.02 162.185 406.937 166.018 408.214C170.034 409.31 175.784 409.857 183.268 409.857ZM355.662 416.976C338.686 416.976 323.535 413.052 310.21 405.202C297.067 397.171 286.845 386.401 279.544 372.893C272.425 359.203 268.865 344.326 268.865 328.263C268.865 309.461 273.611 293.398 283.103 280.072C292.595 266.565 304.734 256.434 319.52 249.68C334.488 242.926 349.73 239.549 365.245 239.549C382.587 239.549 397.828 243.656 410.971 251.87C424.114 259.902 434.154 270.58 441.09 283.906C448.209 297.231 451.769 311.378 451.769 326.346C451.769 342.957 447.388 358.199 438.626 372.072C429.864 385.945 418.09 396.897 403.305 404.929C388.702 412.96 372.821 416.976 355.662 416.976ZM365.245 411.226C377.658 411.226 388.793 408.214 398.65 402.191C408.69 396.167 416.539 387.314 422.197 375.631C428.039 363.949 430.959 350.076 430.959 334.012C430.959 316.854 427.765 301.612 421.376 288.287C414.987 274.961 405.951 264.557 394.269 257.073C382.769 249.588 369.261 245.846 353.745 245.846C333.666 245.846 317.968 252.327 306.651 265.287C295.333 278.247 289.674 296.045 289.674 318.679C289.674 335.838 292.869 351.536 299.258 365.774C305.647 379.83 314.591 390.964 326.091 399.179C337.591 407.21 350.642 411.226 365.245 411.226ZM657.843 242.561C658.391 242.561 658.664 243.108 658.664 244.204C658.664 245.299 658.391 245.846 657.843 245.846C650.176 245.846 644.609 247.946 641.141 252.144C637.673 256.342 635.938 263.188 635.938 272.68V416.976C635.938 417.341 635.482 417.615 634.569 417.798C633.657 417.98 633.018 417.889 632.653 417.524L506.701 265.013L504.237 262.275V383.845C504.237 393.337 505.88 400.183 509.165 404.381C512.634 408.397 518.11 410.405 525.594 410.405C526.142 410.405 526.415 410.952 526.415 412.048C526.415 413.143 526.142 413.69 525.594 413.69C521.03 413.69 517.562 413.599 515.189 413.417L501.499 413.143L487.535 413.417C484.979 413.599 481.237 413.69 476.309 413.69C475.943 413.69 475.761 413.143 475.761 412.048C475.761 410.952 475.943 410.405 476.309 410.405C484.158 410.405 489.725 408.397 493.011 404.381C496.297 400.183 497.939 393.337 497.939 383.845V255.704C490.82 249.132 483.61 245.846 476.309 245.846C475.761 245.846 475.487 245.299 475.487 244.204C475.487 243.108 475.761 242.561 476.309 242.561L486.439 242.835C488.63 243.017 491.642 243.108 495.475 243.108C499.491 243.108 502.777 243.017 505.332 242.835C507.888 242.652 509.896 242.561 511.356 242.561C512.816 242.561 513.82 242.926 514.368 243.656C515.098 244.204 516.193 245.573 517.654 247.763C519.844 251.049 522.034 254.061 524.225 256.799L629.641 386.31V272.68C629.641 263.188 627.998 256.342 624.712 252.144C621.609 247.946 616.316 245.846 608.831 245.846C608.466 245.846 608.284 245.299 608.284 244.204C608.284 243.108 608.466 242.561 608.831 242.561L619.51 242.835C624.986 243.2 629.458 243.382 632.927 243.382C636.212 243.382 640.776 243.2 646.617 242.835L657.843 242.561ZM764.234 416.976C747.258 416.976 732.108 413.052 718.782 405.202C705.64 397.171 695.417 386.401 688.116 372.893C680.997 359.203 677.437 344.326 677.437 328.263C677.437 309.461 682.183 293.398 691.675 280.072C701.167 266.565 713.306 256.434 728.092 249.68C743.06 242.926 758.302 239.549 773.818 239.549C791.159 239.549 806.401 243.656 819.544 251.87C832.686 259.902 842.726 270.58 849.662 283.906C856.781 297.231 860.341 311.378 860.341 326.346C860.341 342.957 855.96 358.199 847.198 372.072C838.436 385.945 826.663 396.897 811.877 404.929C797.274 412.96 781.393 416.976 764.234 416.976ZM773.818 411.226C786.23 411.226 797.365 408.214 807.222 402.191C817.262 396.167 825.111 387.314 830.77 375.631C836.611 363.949 839.531 350.076 839.531 334.012C839.531 316.854 836.337 301.612 829.948 288.287C823.559 274.961 814.524 264.557 802.841 257.073C791.341 249.588 777.834 245.846 762.318 245.846C742.239 245.846 726.54 252.327 715.223 265.287C703.905 278.247 698.247 296.045 698.247 318.679C698.247 335.838 701.441 351.536 707.83 365.774C714.219 379.83 723.163 390.964 734.663 399.179C746.163 407.21 759.215 411.226 773.818 411.226Z" fill="#020435"/>
<path fill-rule="evenodd" clip-rule="evenodd" d="M868.733 335.03L872.204 365.939L850.611 366.318L846.83 336.224L858.59 334.954L856.47 321.414L864.006 322.027L868.733 335.03Z" fill="#A68567"/>
<path fill-rule="evenodd" clip-rule="evenodd" d="M927.285 337.801L924.197 368.22L871.716 370.314L868.381 330.864L896.273 333.531L904.144 308.94L927.285 337.801Z" fill="#232338"/>
<path d="M927.285 337.801L924.197 368.22L871.716 370.314L868.381 330.864L896.273 333.531L904.144 308.94L927.285 337.801Z" stroke="#2B2C44" stroke-width="0.0762" stroke-miterlimit="22.9256"/>
<path d="M957.554 473.793C1012.12 473.793 1056.36 464.724 1056.36 453.538C1056.36 442.352 1012.12 433.284 957.554 433.284C902.988 433.284 858.754 442.352 858.754 453.538C858.754 464.724 902.988 473.793 957.554 473.793Z" fill="#D2D2D2"/>
<path fill-rule="evenodd" clip-rule="evenodd" d="M913.237 447.304L948.104 448.947L946.995 456.485L913.93 455.528L913.237 447.304Z" fill="#BD9977"/>
<path d="M913.237 447.304L948.104 448.947L946.995 456.485L913.93 455.528L913.237 447.304Z" stroke="#BD9977" stroke-width="0.0762" stroke-miterlimit="22.9256"/>
<path fill-rule="evenodd" clip-rule="evenodd" d="M956.072 447.342L995.822 446.216L994.959 456.928L958.138 456.765L956.072 447.342Z" fill="#BD9977"/>
<path d="M956.072 447.342L995.822 446.216L994.959 456.928L958.138 456.765L956.072 447.342Z" stroke="#BD9977" stroke-width="0.0762" stroke-miterlimit="22.9256"/>
<path fill-rule="evenodd" clip-rule="evenodd" d="M938.48 383.821L950.533 394.554L950.712 449.068L909.841 447.171L901.419 387.551L938.48 383.821Z" fill="#232338"/>
<path d="M950.552 394.535L950.561 394.554L950.513 394.574L938.461 383.841L938.5 383.802L950.552 394.535ZM950.552 394.535L950.561 394.543V394.554L950.552 394.535ZM950.74 449.068L950.711 449.095L950.684 449.068L950.504 394.554H950.561L950.74 449.068ZM950.74 449.068L950.74 449.096L950.711 449.095L950.74 449.068ZM909.84 447.198L909.813 447.175L909.842 447.144L950.713 449.041L950.711 449.095L909.84 447.198ZM909.84 447.198L909.816 447.197L909.813 447.175L909.84 447.198ZM901.391 387.554L901.416 387.524L901.447 387.547L909.869 447.168L909.813 447.175L901.391 387.554ZM901.391 387.554L901.387 387.527L901.416 387.524L901.391 387.554ZM938.477 383.795L938.5 383.802L938.483 383.848L901.422 387.578L901.416 387.524L938.477 383.795ZM938.477 383.795L938.49 383.793L938.5 383.802L938.477 383.795Z" fill="#2B2C44"/>
<path fill-rule="evenodd" clip-rule="evenodd" d="M953.049 447.427L944.711 390.554L960.281 391.366L1002.38 387.397L999.955 446.099L953.049 447.427Z" fill="#2B2C44"/>
<path d="M953.049 447.427L944.711 390.554L960.281 391.366L1002.38 387.397L999.955 446.099L953.049 447.427Z" stroke="#2B2C44" stroke-width="0.0762" stroke-miterlimit="22.9256"/>
<path fill-rule="evenodd" clip-rule="evenodd" d="M897.731 390.278L924.456 397.871L934.13 385.785L944.811 399.903L1009.32 391.616L990.724 309.913L913.988 309.551L897.731 390.278Z" fill="#41415B" stroke="#41415B" stroke-width="0.0762" stroke-miterlimit="22.9256"/>
<path fill-rule="evenodd" clip-rule="evenodd" d="M922.24 309.59L930.463 361.557L925.951 371.464L904.588 335.317L920.452 309.582L922.24 309.59Z" fill="#7D88A3"/>
<path d="M930.489 361.552L930.486 361.568L930.438 361.562L922.215 309.595L922.265 309.585L930.489 361.552ZM930.489 361.552L930.49 361.56L930.486 361.568L930.489 361.552ZM925.974 371.476L925.929 371.479L925.928 371.453L930.44 361.545L930.486 361.568L925.974 371.476ZM925.974 371.476L925.953 371.52L925.929 371.479L925.974 371.476ZM904.566 335.331L904.567 335.302L904.61 335.302L925.972 371.45L925.929 371.479L904.566 335.331ZM904.566 335.331L904.558 335.317L904.567 335.302L904.566 335.331ZM920.43 309.567L920.453 309.555L920.473 309.596L904.61 335.331L904.567 335.302L920.43 309.567ZM920.43 309.567L920.438 309.555L920.453 309.555L920.43 309.567ZM922.241 309.563L922.265 309.585L922.239 309.617L920.451 309.609L920.453 309.555L922.241 309.563ZM922.241 309.563L922.262 309.563L922.265 309.585L922.241 309.563Z" fill="#7D88A3"/>
<path fill-rule="evenodd" clip-rule="evenodd" d="M969.916 349.812L953.243 366.927L954.71 377.654L979.749 363.064L969.916 349.812Z" fill="#2B2C44"/>
<path d="M969.916 349.812L953.243 366.927L954.71 377.654L979.749 363.064L969.916 349.812Z" stroke="#2B2C44" stroke-width="0.0762" stroke-miterlimit="22.9256"/>
<path fill-rule="evenodd" clip-rule="evenodd" d="M914.597 352.252L925.951 371.464L922.563 378.901L904.776 361.255L914.597 352.252Z" fill="#2B2C44"/>
<path d="M914.597 352.252L925.951 371.464L922.563 378.901L904.776 361.255L914.597 352.252Z" stroke="#2B2C44" stroke-width="0.0762" stroke-miterlimit="22.9256"/>
<path fill-rule="evenodd" clip-rule="evenodd" d="M970.716 309.819L951.433 355.449L953.243 366.926L985.315 334.199L972.721 309.828L970.716 309.819Z" fill="#7D88A3"/>
<path d="M970.716 309.819L951.433 355.449L953.243 366.926L985.315 334.199L972.721 309.828L970.716 309.819Z" stroke="#7D88A3" stroke-width="0.0762" stroke-miterlimit="22.9256"/>
<path fill-rule="evenodd" clip-rule="evenodd" d="M934.712 331.082L917.738 377.769L933.025 396.457L955.25 379.649L947.615 331.249L934.712 331.082Z" fill="#BA2308"/>
<path d="M917.711 377.76L934.685 331.073L934.739 331.092L917.765 377.778L917.715 377.787L917.711 377.76ZM917.715 377.787L917.705 377.774L917.711 377.76L917.715 377.787ZM933.003 396.475L917.715 377.787L917.76 377.751L933.047 396.44L933.043 396.48L933.003 396.475ZM933.043 396.48L933.02 396.496L933.003 396.475L933.043 396.48ZM955.268 379.671L933.043 396.48L933.008 396.435L955.233 379.627L955.279 379.645L955.268 379.671ZM955.279 379.645L955.281 379.661L955.268 379.671L955.279 379.645ZM947.644 331.245L955.279 379.645L955.222 379.653L947.587 331.253L947.616 331.221L947.644 331.245ZM947.616 331.221L947.64 331.221L947.644 331.245L947.616 331.221ZM934.712 331.054L947.616 331.221L947.615 331.277L934.712 331.11L934.685 331.073L934.712 331.054ZM934.685 331.073L934.692 331.054L934.712 331.054L934.685 331.073Z" fill="#BA2308"/>
<path fill-rule="evenodd" clip-rule="evenodd" d="M929.991 334.007L934.629 309.649L922.24 309.59L928.392 348.466L933.63 334.06L929.991 334.007Z" fill="#FEFEFE" stroke="#FEFEFE" stroke-width="0.0762" stroke-miterlimit="22.9256"/>
<path fill-rule="evenodd" clip-rule="evenodd" d="M948.949 309.716L950.791 334.31L948.092 334.271L951.433 355.449L970.716 309.819L948.949 309.716Z" fill="#FEFEFE" stroke="#FEFEFE" stroke-width="0.0762" stroke-miterlimit="22.9256"/>
<path fill-rule="evenodd" clip-rule="evenodd" d="M933.415 317.636L929.991 334.007L935.028 334.08L949.206 334.287L950.791 334.31L949.767 316.104L933.415 317.636Z" fill="#91200C"/>
<path d="M929.964 334.001L933.388 317.63L933.442 317.642L930.018 334.013L929.99 334.034L929.964 334.001ZM929.99 334.034L929.957 334.034L929.964 334.001L929.99 334.034ZM935.028 334.108L929.99 334.034L929.991 333.979L935.029 334.053L935.028 334.108ZM949.205 334.314L935.028 334.108L935.029 334.053L949.206 334.259L949.205 334.314ZM950.79 334.337L949.205 334.314L949.206 334.259L950.791 334.282L950.818 334.308L950.79 334.337ZM950.818 334.308L950.82 334.338L950.79 334.337L950.818 334.308ZM949.794 316.102L950.818 334.308L950.763 334.311L949.74 316.105L949.764 316.077L949.794 316.102ZM949.764 316.077L949.793 316.074L949.794 316.102L949.764 316.077ZM933.412 317.609L949.764 316.077L949.77 316.131L933.418 317.663L933.388 317.63L933.412 317.609ZM933.388 317.63L933.392 317.611L933.412 317.609L933.388 317.63Z" fill="#91200C"/>
<path fill-rule="evenodd" clip-rule="evenodd" d="M877.53 174.361L887.589 179.1L902.019 160.061L892.447 155.217L877.53 174.361Z" fill="#BD9977"/>
<path d="M877.53 174.361L887.589 179.1L902.019 160.061L892.447 155.217L877.53 174.361Z" stroke="#BD9977" stroke-width="0.0762" stroke-miterlimit="22.9256"/>
<path fill-rule="evenodd" clip-rule="evenodd" d="M1036.19 143.136L1042.09 136.116L1060.56 148.884L1055.11 156.682L1036.19 143.136Z" fill="#BD9977"/>
<path d="M1036.19 143.136L1042.09 136.116L1060.56 148.884L1055.11 156.682L1036.19 143.136Z" stroke="#BD9977" stroke-width="0.0762" stroke-miterlimit="22.9256"/>
<path fill-rule="evenodd" clip-rule="evenodd" d="M922.513 217.458L933.22 184.794L931.167 176.615L931.23 176.584L907.65 144.291L853.76 229.112L901.511 261.455L922.513 217.458Z" fill="#A65C49"/>
<path d="M933.244 184.801L922.537 217.466L922.489 217.45L933.196 184.786L933.245 184.788L933.244 184.801ZM933.245 184.788L933.246 184.795L933.244 184.801L933.245 184.788ZM931.191 176.608L933.245 184.788L933.196 184.8L931.143 176.621L931.156 176.592L931.191 176.608ZM931.143 176.621L931.138 176.601L931.156 176.592L931.143 176.621ZM931.241 176.606L931.178 176.637L931.156 176.592L931.219 176.561L931.25 176.569L931.241 176.606ZM931.25 176.569L931.268 176.593L931.241 176.606L931.25 176.569ZM907.671 144.277L931.25 176.569L931.209 176.598L907.63 144.306L907.629 144.278L907.671 144.277ZM907.629 144.278L907.649 144.247L907.671 144.277L907.629 144.278ZM853.739 229.099L907.629 144.278L907.671 144.305L853.781 229.126L853.746 229.133L853.739 229.099ZM853.746 229.133L853.726 229.119L853.739 229.099L853.746 229.133ZM901.497 261.476L853.746 229.133L853.774 229.091L901.525 261.434L901.534 261.466L901.497 261.476ZM901.534 261.466L901.521 261.492L901.497 261.476L901.534 261.466ZM922.535 217.469L901.534 261.466L901.488 261.444L922.49 217.447L922.537 217.466L922.535 217.469ZM922.537 217.466L922.536 217.467L922.535 217.469L922.537 217.466Z" fill="#A65C49"/>
<path fill-rule="evenodd" clip-rule="evenodd" d="M1063.68 216.503L1079.23 173.961L1017.58 129.807L981.304 197.559L992.07 208.026L984.505 218.85L1063.68 216.503Z" fill="#BC6A54"/>
<path d="M1079.26 173.969L1063.71 216.511L1063.66 216.494L1079.21 173.953L1079.25 173.941L1079.26 173.969ZM1079.25 173.941L1079.26 173.952L1079.26 173.969L1079.25 173.941ZM1017.59 129.787L1079.25 173.941L1079.22 173.98L1017.56 129.827L1017.56 129.796L1017.59 129.787ZM1017.56 129.796L1017.57 129.772L1017.59 129.787L1017.56 129.796ZM981.283 197.548L1017.56 129.796L1017.6 129.818L981.325 197.571L981.287 197.576L981.283 197.548ZM981.287 197.576L981.274 197.564L981.283 197.548L981.287 197.576ZM992.053 208.044L981.287 197.576L981.321 197.542L992.087 208.009L992.09 208.04L992.053 208.044ZM992.087 208.009L992.102 208.023L992.09 208.04L992.087 208.009ZM984.485 218.836L992.05 208.013L992.09 208.04L984.525 218.864L984.506 218.874L984.485 218.836ZM984.506 218.874L984.458 218.875L984.485 218.836L984.506 218.874ZM1063.69 216.527L984.506 218.874L984.504 218.826L1063.68 216.479L1063.71 216.511L1063.69 216.527ZM1063.71 216.511L1063.7 216.526L1063.69 216.527L1063.71 216.511Z" fill="#BC6A54"/>
<path fill-rule="evenodd" clip-rule="evenodd" d="M981.304 197.559L1020.8 123.793L905.192 142.566L936.263 199.756L981.304 197.559Z" fill="#D9937B"/>
<path d="M981.304 197.559L1020.8 123.793L905.192 142.566L936.263 199.756L981.304 197.559Z" stroke="#D9937B" stroke-width="0.0762" stroke-miterlimit="22.9256"/>
<path fill-rule="evenodd" clip-rule="evenodd" d="M933.51 208.933L937.153 196.789L937.18 196.644L919.24 195.42L908.484 206.028L913.037 226.087L933.51 208.933Z" fill="#E8C48A"/>
<path d="M937.178 196.796L933.535 208.94L933.486 208.926L937.129 196.781L937.178 196.793L937.178 196.796ZM937.178 196.793L937.178 196.795L937.178 196.796L937.178 196.793ZM937.205 196.648L937.178 196.793L937.128 196.784L937.155 196.639L937.181 196.619L937.205 196.648ZM937.181 196.619L937.21 196.621L937.205 196.648L937.181 196.619ZM919.241 195.395L937.181 196.619L937.178 196.669L919.238 195.445L919.222 195.402L919.241 195.395ZM919.222 195.402L919.23 195.394L919.241 195.395L919.222 195.402ZM908.466 206.01L919.222 195.402L919.257 195.438L908.501 206.046L908.459 206.034L908.466 206.01ZM908.459 206.034L908.456 206.02L908.466 206.01L908.459 206.034ZM913.012 226.092L908.459 206.034L908.508 206.023L913.061 226.081L913.053 226.106L913.012 226.092ZM913.053 226.106L913.021 226.133L913.012 226.092L913.053 226.106ZM933.527 208.952L913.053 226.106L913.02 226.067L933.494 208.913L933.535 208.94L933.527 208.952ZM933.535 208.94L933.533 208.947L933.527 208.952L933.535 208.94Z" fill="#E8C48A"/>
<path fill-rule="evenodd" clip-rule="evenodd" d="M992.07 208.027L977.664 194.021L956.453 198.046L959.518 216.269L979.418 226.128L992.07 208.027Z" fill="#E8C48A"/>
<path d="M977.682 194.002L992.088 208.008L992.052 208.045L977.646 194.039L977.659 193.996L977.682 194.002ZM977.659 193.996L977.672 193.993L977.682 194.002L977.659 193.996ZM956.448 198.021L977.659 193.996L977.669 194.046L956.458 198.071L956.428 198.051L956.448 198.021ZM956.428 198.051L956.424 198.026L956.448 198.021L956.428 198.051ZM959.493 216.274L956.428 198.051L956.478 198.042L959.543 216.265L959.507 216.292L959.493 216.274ZM959.507 216.292L959.495 216.286L959.493 216.274L959.507 216.292ZM979.407 226.151L959.507 216.292L959.529 216.247L979.429 226.106L979.439 226.143L979.407 226.151ZM979.439 226.143L979.426 226.161L979.407 226.151L979.439 226.143ZM992.091 208.041L979.439 226.143L979.397 226.114L992.049 208.012L992.088 208.008L992.091 208.041ZM992.088 208.008L992.103 208.023L992.091 208.041L992.088 208.008Z" fill="#E8C48A"/>
<path fill-rule="evenodd" clip-rule="evenodd" d="M969.295 204.85C971.786 204.955 973.726 206.913 973.629 209.224C973.532 211.535 971.433 213.323 968.942 213.218C966.451 213.113 964.511 211.155 964.608 208.844C964.706 206.533 966.804 204.745 969.295 204.85Z" fill="#532124"/>
<path d="M973.653 209.225L973.605 209.223L973.608 209.009L973.6 208.797L973.58 208.588L973.549 208.381L973.507 208.178L973.455 207.978L973.393 207.782L973.321 207.59L973.239 207.402L973.147 207.218L973.047 207.039L972.937 206.866L972.819 206.697L972.692 206.535L972.558 206.378L972.415 206.227L972.265 206.083L972.108 205.945L971.944 205.814L971.773 205.691L971.595 205.575L971.412 205.467L971.222 205.367L971.027 205.275L970.826 205.192L970.62 205.118L970.41 205.053L970.195 204.997L969.975 204.951L969.752 204.915L969.525 204.889L969.294 204.874L969.296 204.826L969.529 204.841L969.758 204.867L969.984 204.904L970.206 204.95L970.423 205.006L970.636 205.072L970.844 205.147L971.046 205.231L971.244 205.324L971.435 205.425L971.621 205.534L971.8 205.651L971.973 205.776L972.139 205.908L972.298 206.047L972.45 206.193L972.594 206.345L972.73 206.504L972.858 206.669L972.977 206.839L973.088 207.015L973.19 207.196L973.282 207.381L973.365 207.572L973.439 207.766L973.502 207.965L973.555 208.167L973.597 208.373L973.628 208.582L973.648 208.794L973.656 209.008L973.653 209.225ZM968.941 213.242L968.943 213.194L969.175 213.198L969.403 213.192L969.629 213.174L969.851 213.147L970.071 213.11L970.286 213.063L970.497 213.006L970.704 212.94L970.906 212.865L971.104 212.781L971.296 212.689L971.482 212.589L971.663 212.48L971.838 212.364L972.006 212.24L972.168 212.108L972.322 211.97L972.47 211.825L972.609 211.674L972.741 211.516L972.865 211.352L972.98 211.182L973.087 211.007L973.184 210.827L973.272 210.641L973.351 210.451L973.42 210.256L973.478 210.057L973.526 209.854L973.564 209.647L973.59 209.437L973.605 209.223L973.653 209.225L973.638 209.441L973.611 209.654L973.574 209.864L973.525 210.069L973.466 210.271L973.396 210.468L973.317 210.661L973.227 210.848L973.129 211.031L973.021 211.208L972.904 211.38L972.779 211.546L972.646 211.705L972.504 211.859L972.355 212.005L972.199 212.145L972.036 212.278L971.865 212.403L971.689 212.521L971.506 212.63L971.318 212.732L971.124 212.825L970.924 212.91L970.72 212.986L970.511 213.052L970.297 213.11L970.08 213.157L969.858 213.195L969.634 213.222L969.406 213.24L969.175 213.246L968.941 213.242ZM964.584 208.843L964.632 208.845L964.629 209.059L964.638 209.271L964.657 209.48L964.688 209.687L964.73 209.89L964.782 210.09L964.844 210.286L964.917 210.478L964.999 210.666L965.09 210.85L965.191 211.029L965.3 211.202L965.418 211.371L965.545 211.533L965.68 211.69L965.822 211.841L965.972 211.985L966.129 212.123L966.293 212.254L966.464 212.377L966.642 212.493L966.826 212.601L967.015 212.701L967.21 212.793L967.411 212.876L967.617 212.95L967.827 213.015L968.042 213.071L968.262 213.117L968.485 213.153L968.713 213.179L968.943 213.194L968.941 213.242L968.708 213.227L968.479 213.201L968.253 213.164L968.031 213.118L967.814 213.062L967.601 212.996L967.394 212.921L967.191 212.837L966.994 212.744L966.802 212.643L966.616 212.534L966.437 212.417L966.264 212.292L966.098 212.16L965.939 212.021L965.787 211.875L965.643 211.723L965.507 211.564L965.38 211.399L965.26 211.229L965.149 211.053L965.047 210.872L964.955 210.687L964.872 210.496L964.799 210.302L964.735 210.103L964.683 209.901L964.641 209.695L964.609 209.486L964.59 209.274L964.581 209.06L964.584 208.843ZM969.296 204.826L969.294 204.874L969.063 204.87L968.834 204.876L968.608 204.893L968.386 204.921L968.167 204.958L967.951 205.005L967.74 205.062L967.533 205.128L967.331 205.203L967.134 205.286L966.942 205.379L966.755 205.479L966.574 205.588L966.4 205.704L966.231 205.828L966.07 205.96L965.915 206.098L965.768 206.243L965.628 206.394L965.496 206.552L965.372 206.716L965.257 206.886L965.15 207.061L965.053 207.241L964.965 207.427L964.886 207.617L964.817 207.812L964.759 208.011L964.711 208.214L964.673 208.421L964.647 208.631L964.632 208.845L964.584 208.843L964.599 208.627L964.626 208.414L964.663 208.204L964.712 207.998L964.771 207.797L964.841 207.6L964.92 207.407L965.01 207.219L965.109 207.037L965.216 206.86L965.333 206.688L965.458 206.522L965.592 206.363L965.733 206.209L965.882 206.063L966.038 205.923L966.202 205.79L966.372 205.665L966.548 205.547L966.731 205.438L966.92 205.336L967.114 205.243L967.313 205.158L967.517 205.082L967.727 205.016L967.94 204.958L968.157 204.911L968.379 204.873L968.604 204.845L968.831 204.828L969.062 204.822L969.296 204.826Z" fill="#532124"/>
<path fill-rule="evenodd" clip-rule="evenodd" d="M925.314 204.601C927.462 204.692 929.135 206.38 929.052 208.373C928.968 210.365 927.158 211.907 925.01 211.817C922.862 211.726 921.189 210.038 921.273 208.045C921.357 206.053 923.166 204.511 925.314 204.601Z" fill="#532124"/>
<path d="M929.076 208.374L929.027 208.372L929.03 208.187L929.023 208.005L929.006 207.824L928.979 207.647L928.944 207.471L928.899 207.299L928.845 207.13L928.783 206.965L928.712 206.803L928.633 206.645L928.546 206.491L928.452 206.341L928.35 206.196L928.241 206.056L928.125 205.921L928.003 205.791L927.873 205.666L927.738 205.548L927.596 205.435L927.449 205.329L927.296 205.229L927.138 205.136L926.975 205.05L926.806 204.97L926.633 204.899L926.456 204.835L926.275 204.779L926.089 204.731L925.9 204.691L925.708 204.66L925.512 204.638L925.313 204.625L925.315 204.577L925.516 204.59L925.714 204.613L925.909 204.644L926.1 204.684L926.288 204.732L926.472 204.789L926.651 204.854L926.826 204.926L926.996 205.006L927.161 205.094L927.322 205.188L927.476 205.289L927.626 205.397L927.769 205.511L927.906 205.631L928.037 205.757L928.161 205.888L928.279 206.025L928.389 206.167L928.492 206.314L928.588 206.466L928.676 206.622L928.756 206.782L928.827 206.947L928.891 207.114L928.945 207.286L928.991 207.461L929.027 207.638L929.054 207.819L929.071 208.002L929.079 208.187L929.076 208.374ZM925.009 211.841L925.011 211.793L925.21 211.796L925.407 211.791L925.602 211.776L925.794 211.753L925.982 211.721L926.168 211.68L926.35 211.631L926.528 211.574L926.702 211.51L926.872 211.438L927.038 211.358L927.199 211.271L927.355 211.178L927.505 211.078L927.65 210.971L927.789 210.858L927.922 210.739L928.049 210.614L928.17 210.483L928.283 210.347L928.39 210.206L928.489 210.06L928.581 209.909L928.665 209.753L928.741 209.594L928.809 209.43L928.868 209.262L928.918 209.09L928.96 208.915L928.992 208.737L929.015 208.556L929.027 208.372L929.076 208.374L929.063 208.561L929.04 208.744L929.007 208.925L928.965 209.103L928.914 209.277L928.854 209.447L928.785 209.613L928.708 209.775L928.623 209.933L928.53 210.086L928.429 210.234L928.321 210.377L928.206 210.515L928.084 210.647L927.955 210.774L927.821 210.894L927.68 211.009L927.533 211.117L927.38 211.218L927.223 211.313L927.06 211.401L926.892 211.481L926.72 211.555L926.544 211.62L926.363 211.677L926.179 211.727L925.992 211.768L925.801 211.8L925.607 211.824L925.41 211.839L925.211 211.845L925.009 211.841ZM921.249 208.044L921.297 208.046L921.294 208.231L921.301 208.413L921.318 208.594L921.345 208.771L921.381 208.947L921.426 209.119L921.479 209.288L921.542 209.453L921.612 209.615L921.691 209.773L921.778 209.927L921.872 210.077L921.974 210.222L922.083 210.362L922.199 210.497L922.322 210.627L922.451 210.752L922.586 210.87L922.728 210.983L922.875 211.089L923.028 211.189L923.186 211.282L923.35 211.368L923.518 211.448L923.691 211.519L923.868 211.583L924.049 211.639L924.235 211.687L924.424 211.727L924.617 211.758L924.812 211.78L925.011 211.793L925.009 211.841L924.808 211.828L924.61 211.805L924.415 211.774L924.224 211.734L924.036 211.686L923.853 211.629L923.673 211.564L923.498 211.492L923.328 211.412L923.163 211.324L923.003 211.23L922.848 211.129L922.699 211.021L922.555 210.907L922.418 210.787L922.287 210.661L922.163 210.53L922.045 210.393L921.935 210.251L921.832 210.104L921.736 209.952L921.648 209.796L921.568 209.636L921.497 209.471L921.434 209.304L921.379 209.132L921.334 208.957L921.297 208.78L921.27 208.599L921.253 208.416L921.246 208.231L921.249 208.044ZM925.315 204.577L925.313 204.625L925.114 204.622L924.917 204.627L924.722 204.642L924.531 204.665L924.342 204.697L924.156 204.738L923.974 204.787L923.796 204.844L923.622 204.908L923.452 204.98L923.286 205.06L923.125 205.147L922.97 205.24L922.819 205.34L922.674 205.447L922.535 205.56L922.402 205.679L922.275 205.804L922.154 205.935L922.041 206.071L921.934 206.212L921.835 206.358L921.743 206.509L921.659 206.665L921.583 206.824L921.515 206.988L921.456 207.156L921.406 207.328L921.364 207.503L921.332 207.681L921.31 207.862L921.297 208.046L921.249 208.044L921.262 207.857L921.284 207.674L921.317 207.493L921.359 207.315L921.41 207.141L921.47 206.971L921.539 206.805L921.616 206.643L921.701 206.485L921.794 206.332L921.895 206.184L922.003 206.041L922.118 205.903L922.24 205.771L922.369 205.644L922.504 205.524L922.645 205.409L922.791 205.301L922.944 205.2L923.101 205.105L923.264 205.017L923.432 204.937L923.604 204.863L923.78 204.798L923.961 204.741L924.145 204.691L924.333 204.65L924.524 204.618L924.718 204.594L924.914 204.579L925.114 204.573L925.315 204.577Z" fill="#532124"/>
<path fill-rule="evenodd" clip-rule="evenodd" d="M865.227 236.852L853.547 269.404L898.266 317.857L967.775 320.927L954.085 288.332L913.381 254.877L901.511 261.455L865.227 236.852Z" fill="#BC6A54"/>
<path d="M865.227 236.852L853.547 269.404L898.266 317.857L967.775 320.927L954.085 288.332L913.381 254.877L901.511 261.455L865.227 236.852Z" stroke="#BC6A54" stroke-width="0.0762" stroke-miterlimit="22.9256"/>
<path fill-rule="evenodd" clip-rule="evenodd" d="M923.275 207.078C924.1 207.113 924.741 207.81 924.706 208.635C924.672 209.461 923.974 210.102 923.149 210.067C922.324 210.032 921.683 209.335 921.717 208.509C921.752 207.684 922.45 207.043 923.275 207.078Z" fill="#FEFEFE"/>
<path d="M923.275 207.078C924.1 207.113 924.741 207.81 924.706 208.635C924.672 209.461 923.974 210.102 923.149 210.067C922.324 210.032 921.683 209.335 921.717 208.509C921.752 207.684 922.45 207.043 923.275 207.078Z" stroke="#FEFEFE" stroke-width="0.0762" stroke-miterlimit="22.9256"/>
<path fill-rule="evenodd" clip-rule="evenodd" d="M966.869 207.73C967.798 207.769 968.519 208.554 968.48 209.483C968.441 210.412 967.656 211.133 966.727 211.094C965.798 211.054 965.077 210.27 965.116 209.341C965.156 208.412 965.94 207.691 966.869 207.73Z" fill="#FEFEFE"/>
<path d="M966.869 207.73C967.798 207.769 968.519 208.554 968.48 209.483C968.441 210.412 967.656 211.133 966.727 211.094C965.798 211.054 965.077 210.27 965.116 209.341C965.156 208.412 965.94 207.691 966.869 207.73Z" stroke="#FEFEFE" stroke-width="0.0762" stroke-miterlimit="22.9256"/>
<path fill-rule="evenodd" clip-rule="evenodd" d="M969.467 341.29L983.012 376.07L969.397 380.89C964.532 369.576 959.668 358.261 954.803 346.946L969.467 341.29Z" fill="#BD9977"/>
<path d="M969.467 341.29L983.012 376.07L969.397 380.89C964.532 369.576 959.668 358.261 954.803 346.946L969.467 341.29V341.29Z" stroke="#BD9977" stroke-width="0.0762" stroke-miterlimit="22.9256"/>
<path fill-rule="evenodd" clip-rule="evenodd" d="M1014.89 303.731L1033.75 350.871L983.848 379.96L966.785 340.016L988.117 333.678L983.318 312.416L1014.89 303.731Z" fill="#2B2C44"/>
<path d="M1014.89 303.731L1033.75 350.871L983.848 379.96L966.785 340.016L988.117 333.678L983.318 312.416L1014.89 303.731Z" stroke="#2B2C44" stroke-width="0.0762" stroke-miterlimit="22.9256"/>
<path fill-rule="evenodd" clip-rule="evenodd" d="M984.505 218.85L979.418 226.128L986.907 263.792L944.181 280.191L966.18 317.129L1075.78 286.984L1068.82 216.351L984.505 218.85Z" fill="#A65C49"/>
<path d="M984.505 218.85L979.418 226.128L986.907 263.792L944.181 280.191L966.18 317.129L1075.78 286.984L1068.82 216.351L984.505 218.85Z" stroke="#A65C49" stroke-width="0.0762" stroke-miterlimit="22.9256"/>
<path fill-rule="evenodd" clip-rule="evenodd" d="M960.205 253.716L946.236 257.25C935.612 242.394 909.527 247.828 923.042 233.959C924.077 234.594 925.017 233.245 926.052 233.797L927.396 229.318L933.51 208.933L895.957 240.397L903.197 267.849L917.215 277.98L932.008 288.839L959.898 282.012L989.982 271.906L1000.75 239.966L979.418 226.128L959.518 216.269L961.146 236.897L960.205 253.716Z" fill="#EDCFA5"/>
<path d="M960.205 253.716L946.236 257.25C935.612 242.394 909.527 247.828 923.042 233.959C924.077 234.594 925.017 233.245 926.052 233.797L927.396 229.318L933.51 208.933L895.957 240.397L903.197 267.849L917.215 277.98L932.008 288.839L959.898 282.012L989.982 271.906L1000.75 239.966L979.418 226.128L959.518 216.269L961.146 236.897L960.205 253.716V253.716Z" stroke="#EDCFA5" stroke-width="0.0762" stroke-miterlimit="22.9256"/>
<path fill-rule="evenodd" clip-rule="evenodd" d="M934.629 274.912L924.793 278.609L919.97 275.152L916.796 279.478L923.761 286.989L946.39 292.643L962.223 283.816L959.195 275.083L943.108 282.777L934.629 274.912Z" fill="#CFAB78"/>
<path d="M934.629 274.912L924.793 278.609L919.97 275.152L916.796 279.478L923.761 286.989L946.39 292.643L962.223 283.816L959.195 275.083L943.108 282.777L934.629 274.912Z" stroke="#CFAB78" stroke-width="0.0762" stroke-miterlimit="22.9256"/>
<path d="M935.309 274.182L933.95 275.641L933.652 275.116L933.564 274.684L933.48 274.25L933.401 273.815L933.326 273.378L933.257 272.941L933.194 272.502L933.135 272.063L933.083 271.622L933.038 271.181L932.998 270.739L932.965 270.297L932.94 269.854L932.921 269.412L932.91 268.968L932.907 268.526L932.912 268.083L932.925 267.64L932.947 267.197L932.978 266.755L933.018 266.314L933.067 265.873L933.126 265.434L933.195 264.995L933.274 264.558L933.364 264.121L933.464 263.687L933.576 263.254L933.699 262.823L933.833 262.394L933.979 261.967L934.137 261.542L934.308 261.12L936.148 261.891L935.998 262.262L935.859 262.636L935.73 263.013L935.611 263.392L935.502 263.774L935.403 264.159L935.314 264.545L935.234 264.935L935.163 265.326L935.101 265.72L935.048 266.116L935.004 266.514L934.968 266.913L934.94 267.315L934.92 267.718L934.908 268.123L934.903 268.529L934.906 268.937L934.916 269.346L934.933 269.755L934.957 270.166L934.988 270.578L935.024 270.99L935.067 271.403L935.116 271.816L935.171 272.229L935.231 272.643L935.296 273.056L935.366 273.469L935.442 273.883L935.522 274.295L935.606 274.708L935.309 274.182ZM933.95 275.641L933.717 275.426L933.652 275.116L933.95 275.641ZM942.676 281.878L943.539 283.675L942.428 283.506L942.163 283.26L941.898 283.015L941.633 282.769L941.368 282.523L941.103 282.277L940.839 282.032L940.574 281.786L940.309 281.54L940.044 281.294L939.779 281.048L939.514 280.803L939.249 280.557L938.984 280.311L938.719 280.065L938.454 279.82L938.189 279.574L937.924 279.328L937.659 279.082L937.394 278.837L937.129 278.591L936.864 278.345L936.599 278.099L936.334 277.853L936.069 277.608L935.804 277.362L935.54 277.116L935.275 276.87L935.01 276.624L934.745 276.379L934.48 276.133L934.215 275.887L933.95 275.641L935.309 274.182L935.574 274.428L935.839 274.674L936.104 274.92L936.369 275.165L936.633 275.411L936.898 275.657L937.163 275.903L937.428 276.148L937.693 276.394L937.958 276.64L938.223 276.886L938.488 277.132L938.753 277.377L939.018 277.623L939.283 277.869L939.548 278.115L939.813 278.36L940.078 278.606L940.343 278.852L940.608 279.098L940.873 279.343L941.138 279.589L941.403 279.835L941.668 280.081L941.932 280.327L942.197 280.572L942.462 280.818L942.727 281.064L942.992 281.31L943.257 281.555L943.522 281.801L943.787 282.047L942.676 281.878ZM943.539 283.675L942.926 283.968L942.428 283.506L943.539 283.675ZM971.533 268.629L972.395 270.426L971.599 270.805L970.782 271.191L969.946 271.583L969.092 271.982L968.221 272.386L967.335 272.794L966.436 273.208L965.523 273.626L964.6 274.047L963.668 274.472L962.727 274.899L961.779 275.328L960.826 275.759L959.868 276.192L958.908 276.626L957.947 277.059L956.986 277.493L956.026 277.927L955.07 278.359L954.117 278.79L953.171 279.219L952.231 279.645L951.3 280.069L950.379 280.489L949.47 280.906L948.573 281.318L947.69 281.726L946.823 282.128L945.973 282.524L945.141 282.915L944.329 283.298L943.539 283.675L942.676 281.878L943.473 281.499L944.29 281.113L945.126 280.721L945.98 280.322L946.851 279.918L947.736 279.509L948.636 279.096L949.548 278.678L950.471 278.257L951.404 277.833L952.345 277.405L953.293 276.976L954.246 276.545L955.203 276.112L956.163 275.678L957.125 275.244L958.086 274.811L959.045 274.377L960.002 273.945L960.954 273.514L961.901 273.085L962.84 272.659L963.771 272.235L964.692 271.815L965.602 271.398L966.499 270.986L967.382 270.578L968.249 270.176L969.099 269.78L969.931 269.389L970.742 269.006L971.533 268.629ZM924.211 279.418L925.375 277.8L924.441 277.677L924.749 277.562L925.056 277.446L925.363 277.331L925.671 277.215L925.978 277.099L926.285 276.984L926.593 276.868L926.9 276.753L927.208 276.637L927.515 276.522L927.822 276.406L928.13 276.291L928.437 276.175L928.745 276.059L929.052 275.944L929.359 275.828L929.667 275.713L929.974 275.597L930.281 275.482L930.589 275.366L930.896 275.251L931.204 275.135L931.511 275.02L931.818 274.904L932.126 274.788L932.433 274.673L932.741 274.557L933.048 274.442L933.355 274.326L933.663 274.211L933.97 274.095L934.278 273.98L934.981 275.844L934.674 275.959L934.366 276.075L934.059 276.191L933.751 276.306L933.444 276.422L933.137 276.537L932.829 276.653L932.522 276.768L932.214 276.884L931.907 276.999L931.6 277.115L931.292 277.231L930.985 277.346L930.678 277.462L930.37 277.577L930.063 277.693L929.755 277.808L929.448 277.924L929.14 278.039L928.833 278.155L928.526 278.27L928.218 278.386L927.911 278.502L927.604 278.617L927.296 278.733L926.989 278.848L926.681 278.964L926.374 279.079L926.067 279.195L925.759 279.31L925.452 279.426L925.145 279.541L924.211 279.418ZM925.145 279.541L924.645 279.729L924.211 279.418L925.145 279.541ZM911.966 270.641L913.13 269.023L913.513 269.297L913.896 269.571L914.278 269.846L914.661 270.12L915.044 270.394L915.426 270.669L915.809 270.943L916.191 271.217L916.574 271.492L916.957 271.766L917.34 272.04L917.722 272.314L918.105 272.589L918.487 272.863L918.87 273.137L919.253 273.412L919.635 273.686L920.018 273.96L920.401 274.234L920.783 274.509L921.166 274.783L921.549 275.057L921.931 275.332L922.314 275.606L922.696 275.88L923.079 276.154L923.462 276.429L923.844 276.703L924.227 276.977L924.61 277.252L924.992 277.526L925.375 277.8L924.211 279.418L923.828 279.144L923.445 278.87L923.063 278.595L922.68 278.321L922.297 278.047L921.915 277.773L921.532 277.498L921.149 277.224L920.767 276.95L920.384 276.675L920.001 276.401L919.619 276.127L919.236 275.853L918.854 275.578L918.471 275.304L918.088 275.03L917.706 274.755L917.323 274.481L916.94 274.207L916.558 273.932L916.175 273.658L915.792 273.384L915.41 273.109L915.027 272.835L914.645 272.561L914.262 272.287L913.879 272.012L913.497 271.738L913.114 271.464L912.731 271.189L912.349 270.915L911.966 270.641Z" fill="#532124"/>
<path fill-rule="evenodd" clip-rule="evenodd" d="M919.566 239.179L937.561 247.319L961.42 240.363L957.956 196.485L936.263 199.756L919.566 239.179Z" fill="#D69F4B"/>
<path d="M937.551 247.341L919.556 239.201L919.576 239.157L937.571 247.297L937.568 247.342L937.551 247.341ZM937.568 247.342L937.559 247.344L937.551 247.341L937.568 247.342ZM961.427 240.386L937.568 247.342L937.554 247.296L961.413 240.34L961.444 240.361L961.427 240.386ZM961.444 240.361L961.445 240.381L961.427 240.386L961.444 240.361ZM957.98 196.483L961.444 240.361L961.396 240.365L957.932 196.487L957.953 196.461L957.98 196.483ZM957.953 196.461L957.978 196.457L957.98 196.483L957.953 196.461ZM936.26 199.732L957.953 196.461L957.96 196.508L936.267 199.779L936.241 199.746L936.26 199.732ZM936.241 199.746L936.246 199.734L936.26 199.732L936.241 199.746ZM919.544 239.17L936.241 199.746L936.286 199.765L919.588 239.189L919.556 239.201L919.544 239.17ZM919.556 239.201L919.534 239.191L919.544 239.17L919.556 239.201Z" fill="#D69F4B"/>
<path fill-rule="evenodd" clip-rule="evenodd" d="M920.091 234.307L912.699 245.664C923.693 254.436 922.853 255.463 934.704 263.085L970.051 251.724C967.789 246.602 965.527 241.48 963.265 236.358C944.586 241.097 935.939 243.637 920.091 234.307Z" fill="#532124"/>
<path d="M920.091 234.307L912.699 245.664C923.693 254.436 922.853 255.463 934.704 263.085L970.051 251.724C967.789 246.602 965.527 241.48 963.265 236.358C944.586 241.097 935.939 243.637 920.091 234.307V234.307Z" stroke="#532124" stroke-width="0.0762" stroke-miterlimit="22.9256"/>
<path fill-rule="evenodd" clip-rule="evenodd" d="M942.881 246.141L942.977 251.167L959.243 247.523L958.067 242.903L942.881 246.141Z" fill="#FEFEFE"/>
<path d="M942.881 246.141L942.977 251.167L959.243 247.523L958.067 242.903L942.881 246.141Z" stroke="#FEFEFE" stroke-width="0.0762" stroke-miterlimit="22.9256"/>
<path fill-rule="evenodd" clip-rule="evenodd" d="M916.177 188.5L913.688 195.717L934.355 204.262L941.095 187.902L916.177 188.5Z" fill="#532124"/>
<path d="M913.665 195.71L916.155 188.492L916.2 188.508L913.711 195.725L913.679 195.74L913.665 195.71ZM913.679 195.74L913.658 195.731L913.665 195.71L913.679 195.74ZM934.345 204.284L913.679 195.74L913.697 195.695L934.364 204.24L934.377 204.271L934.345 204.284ZM934.377 204.271L934.368 204.294L934.345 204.284L934.377 204.271ZM941.118 187.911L934.377 204.271L934.332 204.253L941.073 187.893L941.095 187.878L941.118 187.911ZM941.095 187.878L941.132 187.877L941.118 187.911L941.095 187.878ZM916.177 188.476L941.095 187.878L941.096 187.926L916.178 188.524L916.155 188.492L916.177 188.476ZM916.155 188.492L916.16 188.476L916.177 188.476L916.155 188.492Z" fill="#532124"/>
<path fill-rule="evenodd" clip-rule="evenodd" d="M958.267 200.422L957.1 185.868L980.035 186.038L981.875 192.631L958.267 200.422Z" fill="#532124"/>
<path d="M957.124 185.866L958.291 200.42L958.243 200.424L957.076 185.87L957.1 185.843L957.124 185.866ZM957.076 185.87L957.074 185.843L957.1 185.843L957.076 185.87ZM980.035 186.062L957.1 185.892L957.1 185.843L980.036 186.014L980.059 186.031L980.035 186.062ZM980.036 186.014L980.054 186.014L980.059 186.031L980.036 186.014ZM981.852 192.637L980.012 186.044L980.059 186.031L981.898 192.624L981.883 192.654L981.852 192.637ZM981.898 192.624L981.905 192.647L981.883 192.654L981.898 192.624ZM958.26 200.399L981.868 192.608L981.883 192.654L958.275 200.445L958.243 200.424L958.26 200.399ZM958.275 200.445L958.245 200.455L958.243 200.424L958.275 200.445Z" fill="#532124"/>
<path fill-rule="evenodd" clip-rule="evenodd" d="M845.428 335.471L857.187 334.134L863.031 366.882L849.209 367.137L845.428 335.471Z" fill="#BD9977"/>
</g>
<defs>
<clipPath id="clip0">
<rect width="1200" height="600" fill="white"/>
</clipPath>
</defs>
</svg>
